OFF
1046 0 0
-0.425 0.775 -0.025 0 0 0 
-0.375 0.775 -0.025 0 0 0 
-0.325 0.775 -0.025 0 0 0 
-0.275 0.775 -0.075 0 0 0 
-0.275 0.775 -0.025 0 0 0 
-0.225 0.975 -0.525 0 0 0 
-0.225 0.975 -0.475 0 0 0 
-0.225 0.925 -0.425 0 0 0 
-0.225 0.975 -0.425 0 0 0 
-0.175 0.975 -0.525 0 0 0 
-0.025 0.975 -0.525 0 0 0 
-0.175 0.975 -0.475 0 0 0 
-0.225 1.025 -0.575 0 0 0 
-0.225 1.075 -0.575 0 0 0 
-0.275 1.025 -0.525 0 0 0 
-0.225 1.025 -0.525 0 0 0 
-0.225 1.075 -0.525 0 0 0 
-0.225 1.175 -0.575 0 0 0 
-0.225 1.125 -0.525 0 0 0 
-0.225 1.025 -0.475 0 0 0 
-0.225 1.075 -0.475 0 0 0 
-0.225 1.025 -0.425 0 0 0 
-0.225 1.075 -0.425 0 0 0 
-0.225 1.125 -0.475 0 0 0 
-0.225 1.125 -0.425 0 0 0 
-0.225 1.175 -0.425 0 0 0 
-0.175 1.025 -0.575 0 0 0 
-0.125 1.025 -0.575 0 0 0 
-0.175 1.075 -0.575 0 0 0 
-0.125 1.075 -0.575 0 0 0 
-0.175 1.025 -0.525 0 0 0 
-0.075 1.025 -0.575 0 0 0 
-0.025 1.025 -0.575 0 0 0 
-0.075 1.075 -0.575 0 0 0 
-0.025 1.075 -0.575 0 0 0 
-0.075 1.025 -0.525 0 0 0 
-0.025 1.025 -0.525 0 0 0 
-0.175 1.125 -0.575 0 0 0 
-0.125 1.125 -0.575 0 0 0 
-0.175 1.175 -0.575 0 0 0 
-0.125 1.175 -0.575 0 0 0 
-0.175 1.125 -0.525 0 0 0 
-0.075 1.125 -0.575 0 0 0 
-0.025 1.125 -0.575 0 0 0 
-0.075 1.175 -0.575 0 0 0 
-0.025 1.175 -0.575 0 0 0 
-0.225 1.225 -0.575 0 0 0 
-0.225 1.275 -0.575 0 0 0 
-0.225 1.275 -0.525 0 0 0 
-0.225 1.325 -0.575 0 0 0 
-0.225 1.325 -0.525 0 0 0 
-0.225 1.375 -0.525 0 0 0 
-0.225 1.225 -0.475 0 0 0 
-0.225 1.275 -0.475 0 0 0 
-0.225 1.225 -0.425 0 0 0 
-0.225 1.325 -0.475 0 0 0 
-0.225 1.375 -0.475 0 0 0 
-0.175 1.225 -0.575 0 0 0 
-0.125 1.225 -0.575 0 0 0 
-0.175 1.275 -0.575 0 0 0 
-0.125 1.275 -0.575 0 0 0 
-0.075 1.225 -0.575 0 0 0 
-0.025 1.225 -0.575 0 0 0 
-0.075 1.275 -0.575 0 0 0 
-0.025 1.275 -0.575 0 0 0 
-0.175 1.325 -0.575 0 0 0 
-0.125 1.325 -0.575 0 0 0 
-0.175 1.375 -0.575 0 0 0 
-0.125 1.375 -0.575 0 0 0 
-0.175 1.325 -0.525 0 0 0 
-0.175 1.375 -0.525 0 0 0 
-0.125 1.375 -0.525 0 0 0 
-0.075 1.325 -0.575 0 0 0 
-0.025 1.325 -0.575 0 0 0 
-0.075 1.375 -0.575 0 0 0 
-0.075 1.325 -0.525 0 0 0 
-0.025 1.325 -0.525 0 0 0 
-0.075 1.375 -0.525 0 0 0 
-0.175 1.375 -0.475 0 0 0 
-0.125 1.375 -0.475 0 0 0 
-0.075 1.325 -0.475 0 0 0 
-0.025 1.325 -0.475 0 0 0 
-0.225 0.925 -0.375 0 0 0 
-0.225 0.975 -0.375 0 0 0 
-0.225 0.925 -0.325 0 0 0 
-0.225 0.975 -0.325 0 0 0 
-0.225 0.875 -0.275 0 0 0 
-0.275 0.825 -0.225 0 0 0 
-0.275 0.875 -0.225 0 0 0 
-0.225 0.875 -0.225 0 0 0 
-0.225 0.925 -0.275 0 0 0 
-0.225 0.975 -0.275 0 0 0 
-0.225 0.925 -0.225 0 0 0 
-0.225 0.975 -0.225 0 0 0 
-0.225 1.025 -0.375 0 0 0 
-0.225 1.075 -0.375 0 0 0 
-0.225 1.025 -0.325 0 0 0 
-0.225 1.075 -0.325 0 0 0 
-0.225 1.125 -0.375 0 0 0 
-0.225 1.175 -0.375 0 0 0 
-0.225 1.125 -0.325 0 0 0 
-0.225 1.025 -0.275 0 0 0 
-0.225 1.075 -0.275 0 0 0 
-0.275 0.825 -0.175 0 0 0 
-0.275 0.875 -0.175 0 0 0 
-0.225 0.875 -0.175 0 0 0 
-0.275 0.825 -0.125 0 0 0 
-0.275 0.875 -0.125 0 0 0 
-0.225 0.875 -0.125 0 0 0 
-0.225 0.925 -0.175 0 0 0 
-0.275 0.825 -0.075 0 0 0 
-0.225 0.825 -0.075 0 0 0 
-0.275 0.875 -0.075 0 0 0 
-0.225 0.875 -0.075 0 0 0 
-0.275 0.825 -0.025 0 0 0 
-0.275 0.875 -0.025 0 0 0 
-0.225 0.875 -0.025 0 0 0 
-0.25 0.95 -0.05 0 0 0 
-0.175 0.825 -0.075 0 0 0 
-0.125 0.825 -0.075 0 0 0 
-0.175 0.875 -0.075 0 0 0 
-0.125 0.875 -0.075 0 0 0 
-0.175 0.875 -0.025 0 0 0 
-0.125 0.875 -0.025 0 0 0 
-0.075 0.825 -0.075 0 0 0 
-0.025 0.825 -0.075 0 0 0 
-0.075 0.875 -0.075 0 0 0 
-0.025 0.875 -0.075 0 0 0 
-0.075 0.875 -0.025 0 0 0 
-0.025 0.875 -0.025 0 0 0 
-0.15 0.95 -0.05 0 0 0 
-0.05 0.95 -0.05 0 0 0 
-0.275 1.025 -0.075 0 0 0 
-0.225 1.025 -0.075 0 0 0 
-0.225 1.075 -0.075 0 0 0 
-0.275 1.025 -0.025 0 0 0 
-0.225 1.025 -0.025 0 0 0 
-0.225 1.075 -0.025 0 0 0 
-0.225 1.125 -0.075 0 0 0 
-0.225 1.175 -0.075 0 0 0 
-0.225 1.125 -0.025 0 0 0 
-0.225 1.175 -0.025 0 0 0 
-0.175 1.025 -0.075 0 0 0 
-0.175 1.075 -0.075 0 0 0 
-0.125 1.075 -0.075 0 0 0 
-0.075 1.025 -0.075 0 0 0 
-0.025 1.025 -0.075 0 0 0 
-0.075 1.075 -0.075 0 0 0 
-0.025 1.075 -0.075 0 0 0 
-0.175 1.125 -0.075 0 0 0 
-0.125 1.125 -0.075 0 0 0 
-0.175 1.175 -0.075 0 0 0 
-0.125 1.175 -0.075 0 0 0 
-0.075 1.125 -0.075 0 0 0 
-0.025 1.125 -0.075 0 0 0 
-0.075 1.175 -0.075 0 0 0 
-0.025 1.175 -0.075 0 0 0 
-0.225 1.225 -0.075 0 0 0 
-0.225 1.275 -0.075 0 0 0 
-0.225 1.225 -0.025 0 0 0 
-0.225 1.275 -0.025 0 0 0 
-0.225 1.325 -0.075 0 0 0 
-0.225 1.375 -0.075 0 0 0 
-0.225 1.325 -0.025 0 0 0 
-0.225 1.375 -0.025 0 0 0 
-0.025 1.325 -0.125 0 0 0 
-0.175 1.225 -0.075 0 0 0 
-0.125 1.225 -0.075 0 0 0 
-0.175 1.275 -0.075 0 0 0 
-0.125 1.275 -0.075 0 0 0 
-0.175 1.225 -0.025 0 0 0 
-0.175 1.275 -0.025 0 0 0 
-0.075 1.225 -0.075 0 0 0 
-0.025 1.225 -0.075 0 0 0 
-0.075 1.275 -0.075 0 0 0 
-0.025 1.275 -0.075 0 0 0 
-0.175 1.325 -0.075 0 0 0 
-0.125 1.325 -0.075 0 0 0 
-0.175 1.375 -0.075 0 0 0 
-0.125 1.375 -0.075 0 0 0 
-0.175 1.325 -0.025 0 0 0 
-0.175 1.375 -0.025 0 0 0 
-0.125 1.375 -0.025 0 0 0 
-0.075 1.325 -0.075 0 0 0 
-0.025 1.325 -0.075 0 0 0 
-0.075 1.375 -0.075 0 0 0 
-0.025 1.375 -0.075 0 0 0 
-0.075 1.375 -0.025 0 0 0 
-0.025 1.375 -0.025 0 0 0 
0.275 0.775 -0.075 0 0 0 
0.325 0.775 -0.075 0 0 0 
0.375 0.775 -0.075 0 0 0 
0.625 0.775 -0.325 0 0 0 
0.675 0.775 -0.325 0 0 0 
0.675 0.775 -0.275 0 0 0 
0.425 0.775 -0.075 0 0 0 
0.475 0.775 -0.075 0 0 0 
0.525 0.775 -0.075 0 0 0 
0.575 0.775 -0.075 0 0 0 
0.575 0.725 -0.025 0 0 0 
0.575 0.775 -0.025 0 0 0 
0.625 0.775 -0.075 0 0 0 
0.675 0.775 -0.075 0 0 0 
0.025 0.975 -0.525 0 0 0 
0.125 0.975 -0.525 0 0 0 
0.175 0.975 -0.525 0 0 0 
0.225 0.975 -0.525 0 0 0 
0.275 0.975 -0.525 0 0 0 
0.325 0.975 -0.525 0 0 0 
0.375 0.975 -0.525 0 0 0 
0.275 0.975 -0.475 0 0 0 
0.375 0.975 -0.475 0 0 0 
0.025 1.025 -0.575 0 0 0 
0.075 1.025 -0.575 0 0 0 
0.025 1.075 -0.575 0 0 0 
0.075 1.075 -0.575 0 0 0 
0.025 1.025 -0.525 0 0 0 
0.075 1.025 -0.525 0 0 0 
0.125 1.025 -0.575 0 0 0 
0.125 1.075 -0.575 0 0 0 
0.175 1.075 -0.575 0 0 0 
0.125 1.025 -0.525 0 0 0 
0.175 1.025 -0.525 0 0 0 
0.025 1.125 -0.575 0 0 0 
0.075 1.125 -0.575 0 0 0 
0.025 1.175 -0.575 0 0 0 
0.075 1.175 -0.575 0 0 0 
0.125 1.125 -0.575 0 0 0 
0.175 1.125 -0.575 0 0 0 
0.125 1.175 -0.575 0 0 0 
0.175 1.175 -0.575 0 0 0 
0.225 1.075 -0.575 0 0 0 
0.275 1.075 -0.575 0 0 0 
0.225 1.025 -0.525 0 0 0 
0.275 1.025 -0.525 0 0 0 
0.325 1.075 -0.575 0 0 0 
0.375 1.075 -0.575 0 0 0 
0.325 1.025 -0.525 0 0 0 
0.375 1.025 -0.525 0 0 0 
0.225 1.125 -0.575 0 0 0 
0.275 1.125 -0.575 0 0 0 
0.225 1.175 -0.575 0 0 0 
0.275 1.175 -0.575 0 0 0 
0.325 1.125 -0.575 0 0 0 
0.375 1.125 -0.575 0 0 0 
0.325 1.175 -0.575 0 0 0 
0.375 1.175 -0.575 0 0 0 
0.375 1.125 -0.525 0 0 0 
0.325 1.025 -0.475 0 0 0 
0.425 0.975 -0.525 0 0 0 
0.475 0.975 -0.525 0 0 0 
0.525 0.975 -0.525 0 0 0 
0.575 0.975 -0.525 0 0 0 
0.425 0.975 -0.475 0 0 0 
0.525 0.975 -0.475 0 0 0 
0.575 0.975 -0.475 0 0 0 
0.675 0.975 -0.525 0 0 0 
0.625 0.875 -0.425 0 0 0 
0.675 0.875 -0.425 0 0 0 
0.65 0.95 -0.45 0 0 0 
0.475 1.025 -0.575 0 0 0 
0.425 1.075 -0.575 0 0 0 
0.475 1.075 -0.575 0 0 0 
0.525 1.025 -0.575 0 0 0 
0.575 1.025 -0.575 0 0 0 
0.525 1.075 -0.575 0 0 0 
0.575 1.075 -0.575 0 0 0 
0.575 1.075 -0.525 0 0 0 
0.425 1.125 -0.575 0 0 0 
0.475 1.125 -0.575 0 0 0 
0.425 1.175 -0.575 0 0 0 
0.475 1.175 -0.575 0 0 0 
0.475 1.125 -0.525 0 0 0 
0.525 1.125 -0.575 0 0 0 
0.575 1.125 -0.575 0 0 0 
0.525 1.175 -0.575 0 0 0 
0.575 1.175 -0.575 0 0 0 
0.625 1.025 -0.575 0 0 0 
0.675 1.025 -0.575 0 0 0 
0.625 1.075 -0.575 0 0 0 
0.675 1.075 -0.575 0 0 0 
0.675 1.025 -0.525 0 0 0 
0.675 1.075 -0.525 0 0 0 
0.725 1.075 -0.575 0 0 0 
0.625 1.125 -0.575 0 0 0 
0.625 1.175 -0.575 0 0 0 
0.675 1.175 -0.575 0 0 0 
0.675 1.125 -0.525 0 0 0 
0.675 1.175 -0.525 0 0 0 
0.675 1.025 -0.475 0 0 0 
0.675 1.075 -0.475 0 0 0 
0.675 1.025 -0.425 0 0 0 
0.675 1.075 -0.425 0 0 0 
0.675 1.125 -0.475 0 0 0 
0.675 1.175 -0.475 0 0 0 
0.675 1.125 -0.425 0 0 0 
0.675 1.175 -0.425 0 0 0 
0.025 1.225 -0.575 0 0 0 
0.075 1.225 -0.575 0 0 0 
0.025 1.275 -0.575 0 0 0 
0.075 1.275 -0.575 0 0 0 
0.125 1.225 -0.575 0 0 0 
0.175 1.225 -0.575 0 0 0 
0.125 1.275 -0.575 0 0 0 
0.175 1.275 -0.575 0 0 0 
0.025 1.325 -0.575 0 0 0 
0.075 1.325 -0.575 0 0 0 
0.025 1.325 -0.525 0 0 0 
0.075 1.325 -0.525 0 0 0 
0.025 1.375 -0.525 0 0 0 
0.075 1.375 -0.525 0 0 0 
0.125 1.325 -0.575 0 0 0 
0.175 1.325 -0.575 0 0 0 
0.125 1.325 -0.525 0 0 0 
0.175 1.325 -0.525 0 0 0 
0.125 1.375 -0.525 0 0 0 
0.025 1.375 -0.475 0 0 0 
0.125 1.325 -0.475 0 0 0 
0.175 1.325 -0.475 0 0 0 
0.225 1.225 -0.575 0 0 0 
0.275 1.225 -0.575 0 0 0 
0.225 1.275 -0.575 0 0 0 
0.275 1.275 -0.575 0 0 0 
0.325 1.225 -0.575 0 0 0 
0.375 1.225 -0.575 0 0 0 
0.325 1.275 -0.575 0 0 0 
0.375 1.275 -0.575 0 0 0 
0.225 1.325 -0.575 0 0 0 
0.275 1.325 -0.575 0 0 0 
0.225 1.325 -0.525 0 0 0 
0.275 1.325 -0.525 0 0 0 
0.325 1.325 -0.575 0 0 0 
0.375 1.325 -0.575 0 0 0 
0.325 1.325 -0.525 0 0 0 
0.375 1.325 -0.525 0 0 0 
0.225 1.325 -0.475 0 0 0 
0.375 1.325 -0.475 0 0 0 
0.425 1.225 -0.575 0 0 0 
0.475 1.225 -0.575 0 0 0 
0.425 1.275 -0.575 0 0 0 
0.475 1.275 -0.575 0 0 0 
0.525 1.225 -0.575 0 0 0 
0.575 1.225 -0.575 0 0 0 
0.525 1.275 -0.575 0 0 0 
0.575 1.275 -0.575 0 0 0 
0.425 1.325 -0.575 0 0 0 
0.475 1.325 -0.575 0 0 0 
0.425 1.325 -0.525 0 0 0 
0.475 1.325 -0.525 0 0 0 
0.525 1.325 -0.575 0 0 0 
0.575 1.325 -0.575 0 0 0 
0.525 1.325 -0.525 0 0 0 
0.575 1.325 -0.525 0 0 0 
0.575 1.325 -0.475 0 0 0 
0.625 1.225 -0.575 0 0 0 
0.675 1.225 -0.575 0 0 0 
0.625 1.275 -0.575 0 0 0 
0.675 1.275 -0.575 0 0 0 
0.675 1.225 -0.525 0 0 0 
0.675 1.275 -0.525 0 0 0 
0.625 1.325 -0.575 0 0 0 
0.675 1.325 -0.575 0 0 0 
0.625 1.325 -0.525 0 0 0 
0.675 1.325 -0.525 0 0 0 
0.675 1.225 -0.475 0 0 0 
0.675 1.275 -0.475 0 0 0 
0.675 1.225 -0.425 0 0 0 
0.675 1.325 -0.475 0 0 0 
0.025 0.825 -0.075 0 0 0 
0.075 0.825 -0.075 0 0 0 
0.025 0.875 -0.075 0 0 0 
0.075 0.875 -0.075 0 0 0 
0.125 0.825 -0.075 0 0 0 
0.175 0.825 -0.075 0 0 0 
0.125 0.875 -0.075 0 0 0 
0.175 0.875 -0.075 0 0 0 
0.125 0.825 -0.025 0 0 0 
0.175 0.825 -0.025 0 0 0 
0.025 0.925 -0.075 0 0 0 
0.075 0.925 -0.075 0 0 0 
0.025 0.975 -0.075 0 0 0 
0.075 0.975 -0.075 0 0 0 
0.025 0.975 -0.025 0 0 0 
0.15 0.95 -0.05 0 0 0 
0.225 0.825 -0.075 0 0 0 
0.275 0.825 -0.075 0 0 0 
0.225 0.875 -0.075 0 0 0 
0.275 0.875 -0.075 0 0 0 
0.225 0.825 -0.025 0 0 0 
0.275 0.825 -0.025 0 0 0 
0.225 0.875 -0.025 0 0 0 
0.325 0.825 -0.075 0 0 0 
0.375 0.825 -0.075 0 0 0 
0.325 0.875 -0.075 0 0 0 
0.375 0.875 -0.075 0 0 0 
0.375 0.825 -0.025 0 0 0 
0.375 0.875 -0.025 0 0 0 
0.225 0.925 -0.075 0 0 0 
0.275 0.925 -0.075 0 0 0 
0.225 0.975 -0.075 0 0 0 
0.275 0.975 -0.075 0 0 0 
0.225 0.975 -0.025 0 0 0 
0.275 0.975 -0.025 0 0 0 
0.325 0.925 -0.075 0 0 0 
0.375 0.925 -0.075 0 0 0 
0.325 0.975 -0.075 0 0 0 
0.375 0.975 -0.075 0 0 0 
0.375 0.925 -0.025 0 0 0 
0.325 0.975 -0.025 0 0 0 
0.375 0.975 -0.025 0 0 0 
0.025 1.025 -0.075 0 0 0 
0.075 1.025 -0.075 0 0 0 
0.025 1.075 -0.075 0 0 0 
0.075 1.075 -0.075 0 0 0 
0.125 1.025 -0.075 0 0 0 
0.175 1.025 -0.075 0 0 0 
0.125 1.075 -0.075 0 0 0 
0.175 1.075 -0.075 0 0 0 
0.025 1.125 -0.075 0 0 0 
0.075 1.125 -0.075 0 0 0 
0.025 1.175 -0.075 0 0 0 
0.075 1.175 -0.075 0 0 0 
0.125 1.125 -0.075 0 0 0 
0.175 1.125 -0.075 0 0 0 
0.125 1.175 -0.075 0 0 0 
0.175 1.175 -0.075 0 0 0 
0.225 1.175 -0.125 0 0 0 
0.275 1.175 -0.125 0 0 0 
0.225 1.025 -0.075 0 0 0 
0.275 1.025 -0.075 0 0 0 
0.225 1.075 -0.075 0 0 0 
0.275 1.075 -0.075 0 0 0 
0.275 1.025 -0.025 0 0 0 
0.325 1.025 -0.075 0 0 0 
0.375 1.025 -0.075 0 0 0 
0.375 1.075 -0.075 0 0 0 
0.325 1.025 -0.025 0 0 0 
0.375 1.025 -0.025 0 0 0 
0.225 1.125 -0.075 0 0 0 
0.275 1.125 -0.075 0 0 0 
0.225 1.175 -0.075 0 0 0 
0.275 1.175 -0.075 0 0 0 
0.375 1.125 -0.075 0 0 0 
0.375 1.175 -0.075 0 0 0 
0.575 0.875 -0.275 0 0 0 
0.575 0.875 -0.225 0 0 0 
0.675 0.825 -0.375 0 0 0 
0.675 0.875 -0.375 0 0 0 
0.675 0.825 -0.325 0 0 0 
0.675 0.875 -0.325 0 0 0 
0.675 0.925 -0.375 0 0 0 
0.675 0.975 -0.375 0 0 0 
0.675 0.925 -0.325 0 0 0 
0.675 0.975 -0.325 0 0 0 
0.675 0.825 -0.275 0 0 0 
0.625 0.875 -0.275 0 0 0 
0.675 0.875 -0.275 0 0 0 
0.625 0.825 -0.225 0 0 0 
0.675 0.825 -0.225 0 0 0 
0.625 0.875 -0.225 0 0 0 
0.675 0.875 -0.225 0 0 0 
0.675 0.925 -0.275 0 0 0 
0.675 0.975 -0.275 0 0 0 
0.625 0.925 -0.225 0 0 0 
0.675 0.925 -0.225 0 0 0 
0.675 0.975 -0.225 0 0 0 
0.675 1.025 -0.375 0 0 0 
0.675 1.075 -0.375 0 0 0 
0.675 1.025 -0.325 0 0 0 
0.675 1.075 -0.325 0 0 0 
0.675 1.125 -0.375 0 0 0 
0.675 1.175 -0.375 0 0 0 
0.675 1.125 -0.325 0 0 0 
0.675 1.025 -0.275 0 0 0 
0.575 0.825 -0.175 0 0 0 
0.575 0.825 -0.125 0 0 0 
0.45 0.85 -0.05 0 0 0 
0.55 0.85 -0.05 0 0 0 
0.425 0.925 -0.075 0 0 0 
0.475 0.925 -0.075 0 0 0 
0.425 0.975 -0.075 0 0 0 
0.475 0.975 -0.075 0 0 0 
0.475 0.925 -0.025 0 0 0 
0.425 0.975 -0.025 0 0 0 
0.475 0.975 -0.025 0 0 0 
0.55 0.95 -0.05 0 0 0 
0.625 0.825 -0.175 0 0 0 
0.675 0.825 -0.175 0 0 0 
0.675 0.875 -0.175 0 0 0 
0.625 0.825 -0.125 0 0 0 
0.675 0.825 -0.125 0 0 0 
0.65 0.85 -0.05 0 0 0 
0.65 0.95 -0.05 0 0 0 
0.475 1.125 -0.125 0 0 0 
0.425 1.175 -0.125 0 0 0 
0.475 1.175 -0.125 0 0 0 
0.525 1.175 -0.125 0 0 0 
0.575 1.175 -0.125 0 0 0 
0.425 1.025 -0.075 0 0 0 
0.475 1.025 -0.075 0 0 0 
0.425 1.075 -0.075 0 0 0 
0.475 1.075 -0.075 0 0 0 
0.525 1.025 -0.075 0 0 0 
0.575 1.025 -0.075 0 0 0 
0.525 1.075 -0.075 0 0 0 
0.575 1.075 -0.075 0 0 0 
0.425 1.125 -0.075 0 0 0 
0.475 1.125 -0.075 0 0 0 
0.425 1.175 -0.075 0 0 0 
0.475 1.175 -0.075 0 0 0 
0.525 1.125 -0.075 0 0 0 
0.575 1.125 -0.075 0 0 0 
0.525 1.175 -0.075 0 0 0 
0.575 1.175 -0.075 0 0 0 
0.625 1.075 -0.125 0 0 0 
0.675 1.075 -0.125 0 0 0 
0.625 1.125 -0.125 0 0 0 
0.675 1.125 -0.125 0 0 0 
0.625 1.175 -0.125 0 0 0 
0.675 1.175 -0.125 0 0 0 
0.65 1.05 -0.05 0 0 0 
0.625 1.125 -0.075 0 0 0 
0.675 1.125 -0.075 0 0 0 
0.625 1.175 -0.075 0 0 0 
0.675 1.175 -0.075 0 0 0 
0.675 1.125 -0.025 0 0 0 
0.675 1.175 -0.025 0 0 0 
0.025 1.325 -0.175 0 0 0 
0.025 1.325 -0.125 0 0 0 
0.075 1.325 -0.125 0 0 0 
0.075 1.375 -0.125 0 0 0 
0.125 1.325 -0.125 0 0 0 
0.175 1.325 -0.125 0 0 0 
0.025 1.225 -0.075 0 0 0 
0.075 1.225 -0.075 0 0 0 
0.025 1.275 -0.075 0 0 0 
0.075 1.275 -0.075 0 0 0 
0.125 1.225 -0.075 0 0 0 
0.175 1.225 -0.075 0 0 0 
0.125 1.275 -0.075 0 0 0 
0.175 1.275 -0.075 0 0 0 
0.025 1.325 -0.075 0 0 0 
0.075 1.325 -0.075 0 0 0 
0.025 1.375 -0.075 0 0 0 
0.025 1.325 -0.025 0 0 0 
0.075 1.325 -0.025 0 0 0 
0.025 1.375 -0.025 0 0 0 
0.075 1.375 -0.025 0 0 0 
0.125 1.325 -0.075 0 0 0 
0.175 1.325 -0.075 0 0 0 
0.125 1.325 -0.025 0 0 0 
0.175 1.325 -0.025 0 0 0 
0.225 1.275 -0.125 0 0 0 
0.375 1.275 -0.125 0 0 0 
0.225 1.325 -0.125 0 0 0 
0.275 1.325 -0.125 0 0 0 
0.325 1.325 -0.125 0 0 0 
0.375 1.325 -0.125 0 0 0 
0.225 1.225 -0.075 0 0 0 
0.275 1.225 -0.075 0 0 0 
0.225 1.275 -0.075 0 0 0 
0.225 1.325 -0.075 0 0 0 
0.275 1.325 -0.075 0 0 0 
0.225 1.325 -0.025 0 0 0 
0.275 1.325 -0.025 0 0 0 
0.325 1.325 -0.075 0 0 0 
0.375 1.325 -0.075 0 0 0 
0.325 1.325 -0.025 0 0 0 
0.375 1.325 -0.025 0 0 0 
0.475 1.225 -0.125 0 0 0 
0.425 1.275 -0.125 0 0 0 
0.475 1.275 -0.125 0 0 0 
0.525 1.225 -0.125 0 0 0 
0.525 1.275 -0.125 0 0 0 
0.575 1.275 -0.125 0 0 0 
0.425 1.325 -0.125 0 0 0 
0.475 1.325 -0.125 0 0 0 
0.525 1.325 -0.125 0 0 0 
0.575 1.325 -0.125 0 0 0 
0.475 1.225 -0.075 0 0 0 
0.575 1.225 -0.075 0 0 0 
0.425 1.325 -0.075 0 0 0 
0.475 1.325 -0.075 0 0 0 
0.425 1.325 -0.025 0 0 0 
0.475 1.325 -0.025 0 0 0 
0.525 1.325 -0.075 0 0 0 
0.575 1.325 -0.075 0 0 0 
0.525 1.325 -0.025 0 0 0 
0.575 1.325 -0.025 0 0 0 
0.625 1.225 -0.125 0 0 0 
0.675 1.225 -0.125 0 0 0 
0.625 1.275 -0.125 0 0 0 
0.675 1.275 -0.125 0 0 0 
0.625 1.325 -0.125 0 0 0 
0.675 1.325 -0.125 0 0 0 
0.675 1.225 -0.075 0 0 0 
0.675 1.275 -0.075 0 0 0 
0.675 1.225 -0.025 0 0 0 
0.675 1.275 -0.025 0 0 0 
0.725 1.275 -0.075 0 0 0 
0.725 1.275 -0.025 0 0 0 
0.625 1.325 -0.075 0 0 0 
0.675 1.325 -0.075 0 0 0 
0.625 1.325 -0.025 0 0 0 
0.675 1.325 -0.025 0 0 0 
0.725 1.325 -0.075 0 0 0 
0.725 1.325 -0.025 0 0 0 
-0.425 0.775 0.025 0 0 0 
-0.425 0.775 0.075 0 0 0 
-0.425 0.775 0.125 0 0 0 
-0.375 0.775 0.025 0 0 0 
-0.325 0.775 0.025 0 0 0 
-0.375 0.775 0.075 0 0 0 
-0.325 0.775 0.075 0 0 0 
-0.275 0.725 0.025 0 0 0 
-0.275 0.775 0.025 0 0 0 
-0.275 0.775 0.075 0 0 0 
-0.375 0.775 0.125 0 0 0 
-0.325 0.775 0.125 0 0 0 
-0.375 0.775 0.175 0 0 0 
-0.325 0.775 0.175 0 0 0 
-0.275 0.725 0.125 0 0 0 
-0.275 0.775 0.125 0 0 0 
-0.275 0.775 0.175 0 0 0 
-0.375 0.775 0.225 0 0 0 
-0.325 0.775 0.225 0 0 0 
-0.325 0.775 0.275 0 0 0 
-0.275 0.775 0.225 0 0 0 
-0.275 0.775 0.275 0 0 0 
-0.325 0.775 0.325 0 0 0 
-0.325 0.775 0.375 0 0 0 
-0.275 0.775 0.325 0 0 0 
-0.275 0.775 0.375 0 0 0 
-0.275 0.775 0.425 0 0 0 
-0.275 0.775 0.475 0 0 0 
-0.275 0.775 0.525 0 0 0 
-0.275 0.825 0.025 0 0 0 
-0.275 0.875 0.025 0 0 0 
-0.225 0.875 0.025 0 0 0 
-0.275 0.825 0.075 0 0 0 
-0.275 0.875 0.075 0 0 0 
-0.25 0.95 0.05 0 0 0 
-0.275 0.875 0.125 0 0 0 
-0.275 0.925 0.125 0 0 0 
-0.225 0.925 0.125 0 0 0 
-0.275 0.975 0.125 0 0 0 
-0.225 0.975 0.125 0 0 0 
-0.275 0.925 0.175 0 0 0 
-0.225 0.925 0.175 0 0 0 
-0.225 0.975 0.175 0 0 0 
-0.175 0.925 0.025 0 0 0 
-0.075 0.925 0.025 0 0 0 
-0.275 1.025 0.025 0 0 0 
-0.225 1.025 0.025 0 0 0 
-0.225 1.075 0.025 0 0 0 
-0.275 1.025 0.075 0 0 0 
-0.225 1.025 0.075 0 0 0 
-0.225 1.075 0.075 0 0 0 
-0.225 1.125 0.025 0 0 0 
-0.225 1.175 0.025 0 0 0 
-0.225 1.125 0.075 0 0 0 
-0.225 1.175 0.075 0 0 0 
-0.225 1.025 0.125 0 0 0 
-0.225 1.075 0.125 0 0 0 
-0.225 1.025 0.175 0 0 0 
-0.225 1.075 0.175 0 0 0 
-0.225 1.125 0.125 0 0 0 
-0.225 1.175 0.125 0 0 0 
-0.225 1.125 0.175 0 0 0 
-0.225 1.175 0.175 0 0 0 
-0.275 0.825 0.225 0 0 0 
-0.225 0.825 0.225 0 0 0 
-0.275 0.875 0.225 0 0 0 
-0.225 0.875 0.225 0 0 0 
-0.275 0.825 0.275 0 0 0 
-0.275 0.875 0.275 0 0 0 
-0.275 0.925 0.225 0 0 0 
-0.225 0.925 0.225 0 0 0 
-0.275 0.975 0.225 0 0 0 
-0.225 0.975 0.225 0 0 0 
-0.275 0.925 0.275 0 0 0 
-0.275 0.975 0.275 0 0 0 
-0.275 0.825 0.325 0 0 0 
-0.275 0.875 0.325 0 0 0 
-0.275 0.825 0.375 0 0 0 
-0.275 0.875 0.375 0 0 0 
-0.275 0.925 0.325 0 0 0 
-0.275 0.975 0.325 0 0 0 
-0.275 0.925 0.375 0 0 0 
-0.275 0.975 0.375 0 0 0 
-0.175 0.825 0.225 0 0 0 
-0.125 0.825 0.225 0 0 0 
-0.175 0.875 0.225 0 0 0 
-0.125 0.875 0.225 0 0 0 
-0.125 0.875 0.275 0 0 0 
-0.075 0.825 0.225 0 0 0 
-0.025 0.825 0.225 0 0 0 
-0.075 0.875 0.225 0 0 0 
-0.025 0.875 0.225 0 0 0 
-0.025 0.825 0.275 0 0 0 
-0.075 0.875 0.275 0 0 0 
-0.025 0.875 0.275 0 0 0 
-0.175 0.925 0.225 0 0 0 
-0.125 0.925 0.225 0 0 0 
-0.175 0.975 0.225 0 0 0 
-0.125 0.975 0.225 0 0 0 
-0.125 0.925 0.275 0 0 0 
-0.075 0.925 0.225 0 0 0 
-0.075 0.975 0.225 0 0 0 
-0.025 0.975 0.225 0 0 0 
-0.075 0.925 0.275 0 0 0 
-0.025 0.925 0.275 0 0 0 
-0.075 0.975 0.275 0 0 0 
-0.025 0.975 0.275 0 0 0 
-0.275 1.025 0.225 0 0 0 
-0.225 1.025 0.225 0 0 0 
-0.275 1.075 0.225 0 0 0 
-0.225 1.075 0.225 0 0 0 
-0.275 1.025 0.275 0 0 0 
-0.275 1.075 0.275 0 0 0 
-0.275 1.125 0.225 0 0 0 
-0.225 1.125 0.225 0 0 0 
-0.225 1.175 0.225 0 0 0 
-0.225 1.125 0.275 0 0 0 
-0.225 1.175 0.275 0 0 0 
-0.275 1.025 0.325 0 0 0 
-0.275 1.075 0.325 0 0 0 
-0.225 1.075 0.325 0 0 0 
-0.275 1.025 0.375 0 0 0 
-0.275 1.075 0.375 0 0 0 
-0.225 1.075 0.375 0 0 0 
-0.275 1.125 0.325 0 0 0 
-0.225 1.125 0.325 0 0 0 
-0.225 1.175 0.325 0 0 0 
-0.225 1.125 0.375 0 0 0 
-0.225 1.175 0.375 0 0 0 
-0.175 1.025 0.225 0 0 0 
-0.125 1.025 0.225 0 0 0 
-0.175 1.075 0.225 0 0 0 
-0.125 1.075 0.225 0 0 0 
-0.075 1.025 0.225 0 0 0 
-0.025 1.025 0.225 0 0 0 
-0.075 1.075 0.225 0 0 0 
-0.025 1.075 0.225 0 0 0 
-0.175 1.125 0.225 0 0 0 
-0.125 1.125 0.225 0 0 0 
-0.175 1.175 0.225 0 0 0 
-0.125 1.175 0.225 0 0 0 
-0.075 1.125 0.225 0 0 0 
-0.025 1.125 0.225 0 0 0 
-0.075 1.175 0.225 0 0 0 
-0.025 1.175 0.225 0 0 0 
-0.225 1.225 0.025 0 0 0 
-0.225 1.275 0.025 0 0 0 
-0.225 1.225 0.075 0 0 0 
-0.225 1.275 0.075 0 0 0 
-0.225 1.325 0.025 0 0 0 
-0.225 1.375 0.025 0 0 0 
-0.275 1.325 0.075 0 0 0 
-0.225 1.325 0.075 0 0 0 
-0.225 1.375 0.075 0 0 0 
-0.225 1.225 0.125 0 0 0 
-0.225 1.225 0.175 0 0 0 
-0.225 1.325 0.125 0 0 0 
-0.225 1.375 0.125 0 0 0 
-0.225 1.325 0.175 0 0 0 
-0.225 1.375 0.175 0 0 0 
-0.175 1.225 0.025 0 0 0 
-0.175 1.275 0.025 0 0 0 
-0.175 1.225 0.075 0 0 0 
-0.175 1.275 0.075 0 0 0 
-0.175 1.325 0.025 0 0 0 
-0.175 1.375 0.025 0 0 0 
-0.125 1.375 0.025 0 0 0 
-0.175 1.325 0.075 0 0 0 
-0.175 1.375 0.075 0 0 0 
-0.125 1.375 0.075 0 0 0 
-0.075 1.375 0.025 0 0 0 
-0.025 1.375 0.025 0 0 0 
-0.075 1.375 0.075 0 0 0 
-0.025 1.375 0.075 0 0 0 
-0.175 1.375 0.125 0 0 0 
-0.125 1.375 0.125 0 0 0 
-0.175 1.375 0.175 0 0 0 
-0.125 1.375 0.175 0 0 0 
-0.075 1.375 0.125 0 0 0 
-0.025 1.375 0.125 0 0 0 
-0.075 1.375 0.175 0 0 0 
-0.025 1.375 0.175 0 0 0 
-0.225 1.225 0.225 0 0 0 
-0.225 1.275 0.225 0 0 0 
-0.225 1.225 0.275 0 0 0 
-0.225 1.275 0.275 0 0 0 
-0.225 1.325 0.225 0 0 0 
-0.225 1.375 0.225 0 0 0 
-0.225 1.325 0.275 0 0 0 
-0.225 1.375 0.275 0 0 0 
-0.225 1.225 0.325 0 0 0 
-0.225 1.275 0.325 0 0 0 
-0.225 1.225 0.375 0 0 0 
-0.275 1.275 0.375 0 0 0 
-0.225 1.275 0.375 0 0 0 
-0.275 1.325 0.325 0 0 0 
-0.225 1.325 0.325 0 0 0 
-0.225 1.375 0.325 0 0 0 
-0.275 1.325 0.375 0 0 0 
-0.225 1.325 0.375 0 0 0 
-0.275 1.375 0.375 0 0 0 
-0.225 1.375 0.375 0 0 0 
-0.175 1.225 0.225 0 0 0 
-0.125 1.225 0.225 0 0 0 
-0.175 1.275 0.225 0 0 0 
-0.125 1.275 0.225 0 0 0 
-0.075 1.225 0.225 0 0 0 
-0.025 1.225 0.225 0 0 0 
-0.175 1.325 0.225 0 0 0 
-0.125 1.325 0.225 0 0 0 
-0.175 1.375 0.225 0 0 0 
-0.125 1.375 0.225 0 0 0 
-0.175 1.375 0.275 0 0 0 
-0.125 1.375 0.275 0 0 0 
-0.075 1.325 0.225 0 0 0 
-0.025 1.325 0.225 0 0 0 
-0.075 1.375 0.225 0 0 0 
-0.025 1.375 0.225 0 0 0 
-0.075 1.375 0.275 0 0 0 
-0.025 1.375 0.275 0 0 0 
-0.175 1.375 0.325 0 0 0 
-0.125 1.375 0.325 0 0 0 
-0.175 1.375 0.375 0 0 0 
-0.125 1.375 0.375 0 0 0 
-0.025 1.325 0.325 0 0 0 
-0.075 1.375 0.325 0 0 0 
-0.025 1.375 0.325 0 0 0 
-0.075 1.375 0.375 0 0 0 
-0.025 1.375 0.375 0 0 0 
-0.275 0.825 0.425 0 0 0 
-0.275 0.875 0.425 0 0 0 
-0.275 0.825 0.475 0 0 0 
-0.275 0.875 0.475 0 0 0 
-0.275 0.925 0.425 0 0 0 
-0.275 0.975 0.425 0 0 0 
-0.275 0.925 0.475 0 0 0 
-0.275 0.975 0.475 0 0 0 
-0.275 0.825 0.525 0 0 0 
-0.225 0.825 0.525 0 0 0 
-0.275 0.875 0.525 0 0 0 
-0.225 0.875 0.525 0 0 0 
-0.275 0.825 0.575 0 0 0 
-0.275 0.875 0.575 0 0 0 
-0.275 0.925 0.525 0 0 0 
-0.225 0.925 0.525 0 0 0 
-0.275 0.975 0.525 0 0 0 
-0.225 0.975 0.525 0 0 0 
-0.275 0.925 0.575 0 0 0 
-0.275 0.975 0.575 0 0 0 
-0.025 0.825 0.475 0 0 0 
-0.175 0.825 0.525 0 0 0 
-0.125 0.825 0.525 0 0 0 
-0.175 0.875 0.525 0 0 0 
-0.125 0.875 0.525 0 0 0 
-0.075 0.825 0.525 0 0 0 
-0.025 0.825 0.525 0 0 0 
-0.075 0.875 0.525 0 0 0 
-0.025 0.875 0.525 0 0 0 
-0.175 0.925 0.525 0 0 0 
-0.125 0.925 0.525 0 0 0 
-0.175 0.975 0.525 0 0 0 
-0.125 0.975 0.525 0 0 0 
-0.075 0.925 0.525 0 0 0 
-0.025 0.925 0.525 0 0 0 
-0.075 0.975 0.525 0 0 0 
-0.025 0.975 0.525 0 0 0 
-0.025 0.975 0.575 0 0 0 
-0.275 1.025 0.425 0 0 0 
-0.275 1.075 0.425 0 0 0 
-0.225 1.075 0.425 0 0 0 
-0.275 1.025 0.475 0 0 0 
-0.275 1.075 0.475 0 0 0 
-0.225 1.125 0.425 0 0 0 
-0.225 1.175 0.425 0 0 0 
-0.225 1.125 0.475 0 0 0 
-0.225 1.175 0.475 0 0 0 
-0.275 1.025 0.525 0 0 0 
-0.225 1.025 0.525 0 0 0 
-0.275 1.075 0.525 0 0 0 
-0.225 1.075 0.525 0 0 0 
-0.275 1.025 0.575 0 0 0 
-0.275 1.075 0.575 0 0 0 
-0.275 1.125 0.525 0 0 0 
-0.225 1.125 0.525 0 0 0 
-0.275 1.175 0.525 0 0 0 
-0.225 1.175 0.525 0 0 0 
-0.275 1.125 0.575 0 0 0 
-0.275 1.175 0.575 0 0 0 
-0.225 1.175 0.575 0 0 0 
-0.175 1.025 0.525 0 0 0 
-0.125 1.025 0.525 0 0 0 
-0.175 1.075 0.525 0 0 0 
-0.125 1.075 0.525 0 0 0 
-0.075 1.025 0.525 0 0 0 
-0.025 1.025 0.525 0 0 0 
-0.075 1.075 0.525 0 0 0 
-0.025 1.075 0.525 0 0 0 
-0.075 1.025 0.575 0 0 0 
-0.025 1.025 0.575 0 0 0 
-0.075 1.075 0.575 0 0 0 
-0.175 1.125 0.525 0 0 0 
-0.125 1.125 0.525 0 0 0 
-0.175 1.175 0.525 0 0 0 
-0.125 1.175 0.525 0 0 0 
-0.075 1.125 0.525 0 0 0 
-0.025 1.125 0.525 0 0 0 
-0.075 1.175 0.525 0 0 0 
-0.025 1.175 0.525 0 0 0 
-0.275 0.875 0.625 0 0 0 
-0.275 0.875 0.675 0 0 0 
-0.275 0.925 0.625 0 0 0 
-0.275 0.975 0.625 0 0 0 
-0.275 0.925 0.675 0 0 0 
-0.275 0.975 0.675 0 0 0 
-0.275 0.925 0.725 0 0 0 
-0.275 0.975 0.725 0 0 0 
-0.275 0.975 0.775 0 0 0 
-0.275 1.025 0.625 0 0 0 
-0.275 1.075 0.625 0 0 0 
-0.275 1.025 0.675 0 0 0 
-0.275 1.075 0.675 0 0 0 
-0.275 1.125 0.625 0 0 0 
-0.275 1.175 0.625 0 0 0 
-0.225 1.175 0.625 0 0 0 
-0.275 1.125 0.675 0 0 0 
-0.275 1.175 0.675 0 0 0 
-0.225 1.175 0.675 0 0 0 
-0.275 1.025 0.725 0 0 0 
-0.275 1.075 0.725 0 0 0 
-0.225 1.075 0.725 0 0 0 
-0.275 1.025 0.775 0 0 0 
-0.275 1.075 0.775 0 0 0 
-0.225 1.075 0.775 0 0 0 
-0.275 1.125 0.725 0 0 0 
-0.225 1.125 0.725 0 0 0 
-0.275 1.175 0.725 0 0 0 
-0.225 1.175 0.725 0 0 0 
-0.275 1.125 0.775 0 0 0 
-0.275 1.175 0.775 0 0 0 
-0.225 1.175 0.775 0 0 0 
-0.075 1.025 0.625 0 0 0 
-0.025 1.025 0.625 0 0 0 
-0.075 1.025 0.675 0 0 0 
-0.025 1.025 0.675 0 0 0 
-0.075 1.075 0.675 0 0 0 
-0.025 1.025 0.725 0 0 0 
-0.025 1.075 0.725 0 0 0 
-0.225 1.225 0.425 0 0 0 
-0.275 1.275 0.425 0 0 0 
-0.225 1.275 0.425 0 0 0 
-0.225 1.225 0.475 0 0 0 
-0.275 1.275 0.475 0 0 0 
-0.225 1.275 0.475 0 0 0 
-0.25 1.35 0.45 0 0 0 
-0.25 1.25 0.55 0 0 0 
-0.25 1.35 0.55 0 0 0 
-0.175 1.375 0.425 0 0 0 
-0.125 1.375 0.425 0 0 0 
-0.175 1.375 0.475 0 0 0 
-0.125 1.375 0.475 0 0 0 
-0.075 1.375 0.425 0 0 0 
-0.025 1.375 0.425 0 0 0 
-0.075 1.375 0.475 0 0 0 
-0.025 1.375 0.475 0 0 0 
-0.175 1.225 0.525 0 0 0 
-0.125 1.225 0.525 0 0 0 
-0.175 1.275 0.525 0 0 0 
-0.125 1.275 0.525 0 0 0 
-0.075 1.225 0.525 0 0 0 
-0.025 1.225 0.525 0 0 0 
-0.075 1.275 0.525 0 0 0 
-0.025 1.275 0.525 0 0 0 
-0.15 1.35 0.55 0 0 0 
-0.075 1.325 0.525 0 0 0 
-0.025 1.325 0.525 0 0 0 
-0.075 1.375 0.525 0 0 0 
-0.025 1.375 0.525 0 0 0 
-0.025 1.325 0.575 0 0 0 
-0.075 1.375 0.575 0 0 0 
-0.025 1.375 0.575 0 0 0 
-0.275 1.225 0.625 0 0 0 
-0.225 1.225 0.625 0 0 0 
-0.275 1.275 0.625 0 0 0 
-0.225 1.275 0.625 0 0 0 
-0.275 1.225 0.675 0 0 0 
-0.275 1.275 0.675 0 0 0 
-0.225 1.275 0.675 0 0 0 
-0.25 1.35 0.65 0 0 0 
-0.25 1.25 0.75 0 0 0 
-0.25 1.35 0.75 0 0 0 
-0.15 1.35 0.65 0 0 0 
-0.05 1.35 0.65 0 0 0 
-0.125 1.325 0.725 0 0 0 
-0.175 1.375 0.725 0 0 0 
-0.125 1.375 0.725 0 0 0 
-0.125 1.325 0.775 0 0 0 
-0.175 1.375 0.775 0 0 0 
-0.125 1.375 0.775 0 0 0 
-0.05 1.35 0.75 0 0 0 
-0.275 0.975 0.825 0 0 0 
-0.275 1.025 0.825 0 0 0 
-0.275 1.075 0.825 0 0 0 
-0.275 1.025 0.875 0 0 0 
-0.275 1.075 0.875 0 0 0 
-0.275 1.125 0.825 0 0 0 
-0.275 1.175 0.825 0 0 0 
-0.225 1.175 0.825 0 0 0 
-0.275 1.125 0.875 0 0 0 
-0.275 1.175 0.875 0 0 0 
-0.275 1.025 0.925 0 0 0 
-0.275 1.075 0.925 0 0 0 
-0.275 1.125 0.925 0 0 0 
-0.275 1.175 0.925 0 0 0 
-0.275 1.175 0.975 0 0 0 
-0.275 1.225 0.825 0 0 0 
-0.225 1.225 0.825 0 0 0 
-0.275 1.275 0.825 0 0 0 
-0.225 1.275 0.825 0 0 0 
-0.275 1.225 0.875 0 0 0 
-0.225 1.225 0.875 0 0 0 
-0.225 1.275 0.875 0 0 0 
-0.275 1.325 0.825 0 0 0 
-0.225 1.325 0.825 0 0 0 
-0.275 1.375 0.825 0 0 0 
-0.225 1.375 0.825 0 0 0 
-0.275 1.325 0.875 0 0 0 
-0.225 1.325 0.875 0 0 0 
-0.225 1.375 0.875 0 0 0 
-0.275 1.225 0.925 0 0 0 
-0.275 1.275 0.925 0 0 0 
-0.225 1.275 0.925 0 0 0 
-0.275 1.225 0.975 0 0 0 
-0.225 1.225 0.975 0 0 0 
-0.225 1.275 0.975 0 0 0 
-0.225 1.325 0.925 0 0 0 
-0.225 1.375 0.925 0 0 0 
-0.225 1.325 0.975 0 0 0 
-0.225 1.375 0.975 0 0 0 
-0.125 1.325 0.825 0 0 0 
