OFF
360 719 0
0.619805 -0.419132 1.055291
0.619805 -0.76792 1.015731
0.619805 -0.419132 1.015731
-0.583662 -0.76792 1.055291
-0.626647 -0.76792 1.015731
-0.583662 -0.76792 1.015731
-0.626647 -0.76792 1.055291
-0.626647 -0.419132 1.015731
0.583533 -0.419132 1.055291
0.583533 -0.419132 1.015731
-0.626647 -0.76792 -0.698502
-0.583661 -0.419132 -0.698502
-0.583661 -0.76792 -0.698502
0.619805 -0.76792 1.055291
0.583533 -0.76792 1.055291
0.619805 -0.419132 0.680342
0.583533 -0.419132 0.680342
-0.626647 -0.419132 0.680342
-0.626647 -0.76792 0.680342
-0.583662 -0.76792 0.680342
0.619805 -0.76792 0.680342
0.583533 -0.76792 0.680342
-0.583662 -0.419132 0.268636
-0.583662 -0.748559 -0.085275
-0.583662 -0.419132 -0.085275
0.032909 -0.419132 1.055291
0.032909 -0.76792 1.055291
0.583533 -0.76792 -0.698502
0.619805 -0.419132 -0.698502
0.619805 -0.76792 -0.698502
0.032909 -0.419132 1.015731
0.583533 -0.76792 1.015731
-0.626647 -0.419132 1.055291
-0.583662 -0.419132 1.015731
-0.583662 -0.419132 0.680342
-0.009956 -0.76792 1.015731
-0.009956 -0.76792 0.680342
-0.009955 -0.419132 -0.698502
-0.009955 -0.76792 -0.698502
-0.009956 -0.76792 1.055291
-0.009956 -0.76792 -0.655647
-0.626647 -0.419132 -0.655647
-0.626647 -0.419132 -0.698502
0.032909 -0.419132 -0.655647
0.583533 -0.419132 -0.698502
0.03291 -0.419132 -0.698502
0.619805 -0.76792 -0.655647
0.619805 -0.419132 -0.655647
-0.583662 -0.76792 -0.655647
-0.626647 -0.76792 -0.655647
0.583533 -0.419132 -0.655647
-0.009956 -0.419132 -0.655647
0.583533 -0.76792 -0.655647
0.03291 -0.76792 -0.698502
0.032909 -0.76792 1.015731
0.032909 -0.76792 0.680342
-0.009956 -0.419132 1.055291
-0.009956 -0.419132 1.015731
0.583533 -0.419132 0.644523
0.032909 -0.748559 0.644523
0.032909 -0.419132 0.644523
-0.009956 -0.748559 -0.085275
-0.009956 -0.419132 -0.085275
-0.583662 -0.419132 1.055291
-0.583662 -0.419132 -0.655647
0.032909 -0.76792 -0.655647
-0.009956 -0.76792 0.644523
0.032909 -0.76792 0.644523
-0.009956 -0.419132 0.644523
-0.583662 -0.419132 0.644523
-0.009956 -0.419132 0.680342
0.583533 -0.76792 0.644523
-0.583662 -0.76792 0.644523
-0.626647 -0.419132 0.644523
0.032909 -0.419132 0.680342
0.619805 -0.76792 0.644523
0.619805 -0.419132 0.644523
-0.626647 -0.76792 0.644523
0.619805 -0.419132 0.304581
0.583533 -0.419132 0.304581
-0.626647 -0.419132 0.304581
-0.626647 -0.76792 0.304581
-0.583662 -0.76792 0.304581
0.619805 -0.76792 0.304581
0.583533 -0.76792 0.304581
0.583533 -0.748559 0.680342
-0.583662 -0.419132 0.304581
-0.009956 -0.76792 0.304581
0.032909 -0.76792 0.304581
0.032909 -0.419132 0.304581
-0.009956 -0.419132 0.304581
0.032909 -0.748559 0.304581
0.032909 -0.76792 -0.123984
-0.009956 -0.76792 -0.26454
0.032909 -0.76792 -0.26454
-0.009956 -0.419132 -0.123984
0.032909 -0.419132 -0.26454
-0.009956 -0.419132 -0.26454
0.583533 -0.76792 -0.123984
0.583533 -0.76792 -0.26454
-0.009956 -0.76792 -0.123984
-0.583662 -0.76792 -0.26454
-0.626647 -0.419132 -0.123984
-0.583662 -0.419132 -0.26454
-0.626647 -0.419132 -0.26454
0.619805 -0.76792 -0.123984
0.619805 -0.76792 -0.26454
0.619805 -0.419132 -0.123984
0.619805 -0.419132 -0.26454
-0.583662 -0.76792 -0.123984
-0.626647 -0.76792 -0.26454
-0.626647 -0.76792 -0.123984
0.583533 -0.419132 -0.123984
0.583533 -0.419132 -0.26454
0.032909 -0.76792 -0.085275
-0.583662 -0.419132 -0.123984
0.032909 -0.419132 -0.123984
0.583533 -0.76792 -0.085275
-0.009956 -0.76792 -0.085275
-0.626647 -0.419132 -0.085275
0.032909 -0.419132 -0.085275
0.619805 -0.76792 -0.085275
0.619805 -0.419132 -0.085275
-0.583662 -0.76792 -0.085275
-0.626647 -0.76792 -0.085275
0.583533 -0.419132 -0.085275
0.032909 -0.76792 0.268636
0.583533 -0.748559 0.268636
0.583533 -0.419132 0.268636
0.032909 -0.748559 0.268636
0.032909 -0.419132 0.268636
0.583533 -0.76792 0.268636
-0.009956 -0.76792 0.268636
-0.626647 -0.419132 0.268636
-0.583662 -0.748559 0.644523
0.619805 -0.76792 0.268636
0.619805 -0.419132 0.268636
-0.583662 -0.76792 0.268636
-0.626647 -0.76792 0.268636
-0.009956 -0.419132 0.268636
0.032909 -0.748559 1.015731
0.032909 -0.748559 0.680342
-0.009956 -0.748559 1.015731
-0.009956 -0.748559 0.680342
-0.583662 -0.748559 1.015731
-0.583662 -0.748559 0.680342
0.583533 -0.748559 0.304581
-0.009956 -0.748559 0.304581
-0.583662 -0.748559 0.304581
-0.583662 -0.748559 0.268636
-0.009956 -0.748559 0.268636
0.032909 -0.748559 -0.085275
0.583533 -0.748559 -0.085275
-0.009956 -0.748559 0.644523
0.583533 -0.748559 1.015731
0.583533 -0.748559 0.644523
0.583533 -0.419132 -0.283472
0.619805 -0.419132 -0.450017
0.583533 -0.419132 -0.450017
-0.626647 -0.76792 -0.283472
-0.626647 -0.419132 -0.450017
-0.626647 -0.76792 -0.450017
-0.583662 -0.76792 -0.283472
-0.583662 -0.76792 -0.450017
0.619805 -0.419132 -0.283472
0.619805 -0.76792 -0.450017
0.619805 -0.76792 -0.283472
0.583533 -0.76792 -0.450017
-0.626647 -0.419132 -0.283472
-0.583662 -0.419132 -0.450017
-0.009956 -0.76792 -0.283472
-0.009956 -0.76792 -0.450017
0.583533 -0.76792 -0.283472
0.032909 -0.76792 -0.450017
-0.009956 -0.419132 -0.283472
0.032909 -0.419132 -0.450017
-0.009956 -0.419132 -0.450017
0.032909 -0.76792 -0.283472
-0.583662 -0.419132 -0.283472
0.032909 -0.419132 -0.283472
0.032909 -0.76792 -0.469559
-0.009956 -0.419132 -0.469559
0.583533 -0.76792 -0.469559
-0.009956 -0.76792 -0.469559
-0.626647 -0.419132 -0.469559
0.619805 -0.76792 -0.469559
-0.583662 -0.76792 -0.469559
-0.626647 -0.76792 -0.469559
-0.583662 -0.749141 -0.283472
-0.583662 -0.749141 -0.450017
0.583533 -0.419132 -0.469559
0.583533 -0.749141 -0.450017
-0.583662 -0.749141 -0.26454
0.583533 -0.749141 -0.655647
0.619805 -0.419132 -0.469559
0.583533 -0.749141 -0.283472
-0.009956 -0.749141 -0.26454
0.032909 -0.749141 -0.283472
-0.009956 -0.749141 -0.450017
0.583533 -0.749141 -0.26454
0.032909 -0.419132 -0.469559
-0.583662 -0.419132 -0.469559
-0.009956 -0.749141 -0.123984
0.032909 -0.749141 -0.123984
0.032909 -0.749141 -0.26454
-0.583662 -0.442553 -0.450017
0.032909 -0.749141 -0.450017
-0.583662 -0.749141 -0.655647
-0.009956 -0.749141 -0.469559
-0.009956 -0.749141 -0.655647
-0.009956 -0.749141 -0.283472
0.583533 -0.442553 -0.283472
0.032909 -0.749141 -0.655647
0.583533 -0.749141 -0.469559
0.583533 -0.442553 -0.26454
0.032909 -0.442553 -0.26454
-0.583662 -0.749141 -0.469559
0.583533 -0.749141 -0.123984
0.032909 -0.749141 -0.469559
-0.583662 -0.749141 -0.123984
0.032909 -0.442553 -0.283472
-0.583662 -0.442553 -0.283472
-0.009956 -0.442553 -0.26454
-0.009956 -0.442553 -0.283472
-0.583662 -0.442553 -0.469559
-0.009956 -0.442553 -0.450017
-0.009956 -0.442553 -0.469559
0.032909 -0.442553 -0.469559
0.583533 -0.442553 -0.450017
0.583533 -0.442553 -0.469559
0.032909 -0.442553 -0.450017
-0.583662 -0.442553 -0.26454
0.663034 0.06995 -0.174188
0.600021 -0.375834 -0.237454
0.663034 0.06995 -0.237454
0.663034 0.06995 -0.283473
0.600021 -0.375834 -0.605443
0.663034 0.06995 -0.605443
0.600021 -0.375834 -0.283473
0.592995 -0.425543 -0.283473
0.592995 -0.425543 -0.655647
0.67006 0.11966 -0.655647
0.67006 0.11966 -0.283473
0.592995 -0.425543 -0.123984
0.600021 -0.375834 -0.174188
0.592995 -0.425543 -0.237454
0.67006 0.11966 -0.237454
0.67006 0.11966 -0.123984
0.668337 0.10747 -0.249404
0.664756 0.082141 -0.249404
0.664756 0.082141 -0.271522
0.668337 0.10747 -0.271522
0.679662 0.084596 -0.267616
0.684557 0.102309 -0.269067
0.681771 0.082603 -0.269067
0.679662 0.084596 -0.25331
0.684557 0.102309 -0.251859
0.681978 0.10098 -0.25331
0.673249 0.101809 -0.253655
0.673249 0.101809 -0.267271
0.671045 0.086218 -0.267271
0.671045 0.086218 -0.253655
0.681771 0.082603 -0.251859
0.681978 0.10098 -0.267616
0.702775 0.105978 -0.246514
0.707433 0.099076 -0.269067
0.702775 0.105978 -0.274412
0.692569 0.109592 -0.244655
0.687451 0.073386 -0.276271
0.687451 0.073386 -0.244655
0.692569 0.109592 -0.276271
0.704647 0.07937 -0.269067
0.707433 0.099076 -0.251859
0.704647 0.07937 -0.251859
0.69826 0.074029 -0.246514
0.69826 0.074029 -0.274412
0.59309 -0.374854 -0.237454
0.656102 0.07093 -0.174188
0.656102 0.07093 -0.237454
0.59309 -0.374854 -0.605443
0.656102 0.07093 -0.283473
0.656102 0.07093 -0.605443
0.59309 -0.374854 -0.283473
0.586063 -0.424564 -0.283473
0.663129 0.12064 -0.655647
0.663129 0.12064 -0.283473
0.59309 -0.374854 -0.174188
0.663129 0.12064 -0.123984
0.586063 -0.424564 -0.237454
0.663129 0.12064 -0.237454
0.661443 0.107208 -0.270337
0.661443 0.107208 -0.250589
0.658206 0.084304 -0.270337
0.658206 0.084304 -0.250589
0.586064 -0.424564 -0.123984
0.586064 -0.424564 -0.655647
-0.533459 -0.419132 -0.174188
-0.06016 -0.419132 -0.237453
-0.533459 -0.419132 -0.237453
-0.533459 -0.419132 -0.283472
-0.06016 -0.419132 -0.605443
-0.533459 -0.419132 -0.605443
-0.06016 -0.419132 -0.283472
-0.583662 -0.419132 -0.283472
-0.583662 -0.419132 -0.655647
-0.009956 -0.419132 -0.283472
-0.009956 -0.419132 -0.655647
-0.06016 -0.419132 -0.174188
-0.583662 -0.419132 -0.123984
-0.009956 -0.419132 -0.123984
-0.583662 -0.419132 -0.237453
-0.048343 -0.419132 -0.248976
-0.042686 -0.413963 -0.267058
-0.048343 -0.419132 -0.27195
-0.027431 -0.413963 -0.267058
-0.021772 -0.419132 -0.27195
-0.009956 -0.419132 -0.237453
-0.021772 -0.419132 -0.248976
-0.027431 -0.413963 -0.253868
-0.042686 -0.413963 -0.253868
-0.045247 -0.402836 -0.251653
-0.054322 -0.395923 -0.277118
-0.045247 -0.402836 -0.269273
-0.015795 -0.395923 -0.277118
-0.024869 -0.402836 -0.269273
-0.043149 -0.405331 -0.253466
-0.024869 -0.402836 -0.251653
-0.043149 -0.405331 -0.267459
-0.026966 -0.405331 -0.267459
-0.026966 -0.405331 -0.253466
-0.017454 -0.38531 -0.245242
-0.045247 -0.379733 -0.251653
-0.052662 -0.38531 -0.245242
-0.015795 -0.395923 -0.243807
-0.054322 -0.395923 -0.243807
-0.024869 -0.379733 -0.269273
-0.045247 -0.379733 -0.269273
-0.017454 -0.38531 -0.275683
-0.052662 -0.38531 -0.275683
-0.024869 -0.379733 -0.251653
-0.06016 -0.426132 -0.237453
-0.533459 -0.426132 -0.174188
-0.533459 -0.426132 -0.237453
-0.06016 -0.426132 -0.605443
-0.533459 -0.426132 -0.283472
-0.533459 -0.426132 -0.605443
-0.06016 -0.426132 -0.283472
-0.583662 -0.426132 -0.283472
-0.583662 -0.426132 -0.655647
-0.009956 -0.426132 -0.283472
-0.06016 -0.426132 -0.174188
-0.583662 -0.426132 -0.123984
-0.583662 -0.426132 -0.237453
-0.009956 -0.426132 -0.237453
-0.022543 -0.426049 -0.24972
-0.022543 -0.426049 -0.271206
-0.047573 -0.426049 -0.24972
-0.047573 -0.426049 -0.271206
-0.009956 -0.426132 -0.655647
-0.009956 -0.426132 -0.123984
3 0 1 2
3 3 4 5
3 6 7 4
3 8 2 9
3 10 11 12
3 13 8 14
3 9 15 16
3 4 17 18
3 5 18 19
3 2 20 15
3 1 21 20
3 22 23 24
3 14 25 26
3 27 28 29
3 25 9 30
3 13 31 1
3 32 33 7
3 3 32 6
3 7 34 17
3 35 19 36
3 12 37 38
3 39 5 35
3 40 12 38
3 41 11 42
3 43 44 45
3 46 27 29
3 47 29 28
3 48 10 12
3 49 42 10
3 50 28 44
3 51 45 37
3 52 53 27
3 14 54 31
3 53 44 27
3 31 55 21
3 56 30 57
3 26 56 39
3 58 59 60
3 24 61 62
3 39 63 3
3 63 57 33
3 64 37 11
3 65 38 53
3 26 35 54
3 38 45 53
3 54 36 55
3 55 66 67
3 34 68 69
3 70 60 68
3 21 67 71
3 36 72 66
3 17 69 73
3 74 58 60
3 20 71 75
3 15 75 76
3 19 77 72
3 18 73 77
3 16 76 58
3 58 78 79
3 77 80 81
3 72 81 82
3 76 83 78
3 75 84 83
3 74 85 16
3 73 86 80
3 66 82 87
3 71 88 84
3 68 89 90
3 60 91 89
3 67 87 88
3 92 93 94
3 95 96 97
3 98 94 99
3 100 101 93
3 102 103 104
3 105 99 106
3 107 106 108
3 109 110 101
3 111 104 110
3 112 108 113
3 114 100 92
3 24 95 115
3 62 116 95
3 117 92 98
3 118 109 100
3 119 115 102
3 120 112 116
3 121 98 105
3 122 105 107
3 123 111 109
3 124 102 111
3 125 107 112
3 126 118 114
3 125 127 128
3 128 129 130
3 131 114 117
3 132 123 118
3 133 24 119
3 68 134 69
3 135 117 121
3 136 121 122
3 137 124 123
3 138 119 124
3 128 122 125
3 88 132 126
3 86 139 22
3 90 130 139
3 84 126 131
3 87 137 132
3 80 22 133
3 89 128 130
3 83 131 135
3 78 135 136
3 82 138 137
3 81 133 138
3 79 136 128
3 140 85 141
3 142 141 143
3 144 143 145
3 59 146 91
3 134 147 148
3 149 61 23
3 150 151 61
3 129 152 151
3 90 153 68
3 62 151 120
3 89 146 79
3 57 144 33
3 16 154 9
3 139 149 22
3 34 143 70
3 9 140 30
3 33 145 34
3 130 150 139
3 79 155 58
3 70 141 74
3 30 142 57
3 86 147 90
3 69 148 86
3 120 152 125
3 156 157 158
3 159 160 161
3 162 161 163
3 164 165 157
3 166 167 165
3 168 169 160
3 170 163 171
3 172 173 167
3 174 175 176
3 177 171 173
3 113 164 156
3 110 168 159
3 101 159 162
3 108 166 164
3 106 172 166
3 104 178 168
3 93 162 170
3 99 177 172
3 97 179 174
3 94 170 177
3 152 114 117
3 114 61 118
3 118 23 61
3 119 24 23
3 180 40 65
3 181 43 51
3 182 65 52
3 183 48 40
3 184 64 41
3 185 52 46
3 186 49 48
3 187 41 49
3 103 188 178
3 178 189 169
3 190 191 158
3 115 192 103
3 190 47 50
3 43 193 50
3 194 46 47
3 158 195 156
3 174 196 97
3 96 197 179
3 181 198 176
3 156 199 113
3 173 183 180
3 176 200 181
3 167 180 182
3 171 186 183
3 160 201 184
3 165 182 185
3 157 185 194
3 163 187 186
3 161 184 187
3 158 194 190
3 192 202 196
3 203 199 204
3 198 205 189
3 206 195 191
3 207 208 209
3 189 210 198
3 197 211 195
3 212 213 193
3 195 214 199
3 199 215 204
3 169 216 201
3 200 212 43
3 179 206 175
3 64 209 51
3 113 217 112
3 175 218 200
3 51 208 181
3 112 203 116
3 116 204 96
3 50 213 190
3 95 219 115
3 97 202 95
3 201 207 64
3 176 210 174
3 215 211 220
3 221 222 223
3 224 225 226
3 227 228 229
3 192 221 188
3 216 226 208
3 208 225 198
3 191 230 206
3 196 231 192
3 213 228 191
3 218 229 213
3 204 220 197
3 189 224 216
3 210 222 196
3 206 227 218
3 188 223 210
3 0 13 1
3 3 6 4
3 10 42 11
3 13 0 8
3 5 4 18
3 2 1 20
3 1 31 21
3 27 44 28
3 13 14 31
3 35 5 19
3 12 11 37
3 39 3 5
3 40 48 12
3 46 52 27
3 47 46 29
3 48 49 10
3 52 65 53
3 14 26 54
3 53 45 44
3 31 54 55
3 65 40 38
3 26 39 35
3 38 37 45
3 54 35 36
3 55 36 66
3 21 55 67
3 36 19 72
3 20 21 71
3 15 20 75
3 19 18 77
3 72 77 81
3 76 75 83
3 75 71 84
3 66 72 82
3 71 67 88
3 67 66 87
3 92 100 93
3 98 92 94
3 100 109 101
3 105 98 99
3 107 105 106
3 109 111 110
3 114 118 100
3 117 114 92
3 118 123 109
3 121 117 98
3 122 121 105
3 123 124 111
3 126 132 118
3 131 126 114
3 132 137 123
3 135 131 117
3 136 135 121
3 137 138 124
3 88 87 132
3 84 88 126
3 87 82 137
3 83 84 131
3 78 83 135
3 82 81 138
3 162 159 161
3 164 166 165
3 166 172 167
3 170 162 163
3 172 177 173
3 177 170 171
3 101 110 159
3 108 106 166
3 106 99 172
3 93 101 162
3 99 94 177
3 94 93 170
3 180 183 40
3 182 180 65
3 183 186 48
3 185 182 52
3 186 187 49
3 194 185 46
3 173 171 183
3 167 173 180
3 171 163 186
3 165 167 182
3 157 165 185
3 163 161 187
3 6 32 7
3 8 0 2
3 9 2 15
3 4 7 17
3 22 149 23
3 14 8 25
3 25 8 9
3 32 63 33
3 3 63 32
3 7 33 34
3 41 64 11
3 43 50 44
3 49 41 42
3 50 47 28
3 51 43 45
3 56 25 30
3 26 25 56
3 58 155 59
3 24 23 61
3 39 56 63
3 63 56 57
3 64 51 37
3 34 70 68
3 70 74 60
3 17 34 69
3 74 16 58
3 18 17 73
3 16 15 76
3 58 76 78
3 77 73 80
3 74 141 85
3 73 69 86
3 68 60 89
3 60 59 91
3 95 116 96
3 102 115 103
3 111 102 104
3 112 107 108
3 24 62 95
3 62 120 116
3 119 24 115
3 120 125 112
3 124 119 102
3 125 122 107
3 125 152 127
3 128 127 129
3 133 22 24
3 68 153 134
3 138 133 119
3 128 136 122
3 86 90 139
3 90 89 130
3 80 86 22
3 89 79 128
3 81 80 133
3 79 78 136
3 140 154 85
3 142 140 141
3 144 142 143
3 59 155 146
3 134 153 147
3 149 150 61
3 150 129 151
3 129 127 152
3 90 147 153
3 62 61 151
3 89 91 146
3 57 142 144
3 16 85 154
3 139 150 149
3 34 145 143
3 9 154 140
3 33 144 145
3 130 129 150
3 79 146 155
3 70 143 141
3 30 140 142
3 86 148 147
3 69 134 148
3 120 151 152
3 156 164 157
3 159 168 160
3 168 178 169
3 174 179 175
3 113 108 164
3 110 104 168
3 104 103 178
3 97 96 179
3 152 151 114
3 114 151 61
3 118 123 23
3 123 124 23
3 124 119 23
3 181 200 43
3 184 201 64
3 187 184 41
3 103 192 188
3 178 188 189
3 190 213 191
3 115 219 192
3 190 194 47
3 43 212 193
3 158 191 195
3 174 210 196
3 96 204 197
3 181 208 198
3 156 195 199
3 176 175 200
3 160 169 201
3 161 160 184
3 158 157 194
3 192 219 202
3 203 217 199
3 198 225 205
3 206 197 195
3 207 216 208
3 189 188 210
3 197 220 211
3 212 218 213
3 195 211 214
3 199 214 215
3 169 189 216
3 200 218 212
3 179 197 206
3 64 207 209
3 113 199 217
3 175 206 218
3 51 209 208
3 112 217 203
3 116 203 204
3 50 193 213
3 95 202 219
3 97 196 202
3 201 216 207
3 176 198 210
3 215 214 211
3 221 231 222
3 224 205 225
3 227 230 228
3 192 231 221
3 216 224 226
3 208 226 225
3 191 228 230
3 196 222 231
3 213 229 228
3 218 227 229
3 204 215 220
3 189 205 224
3 210 223 222
3 206 230 227
3 188 221 223
3 232 233 234
3 235 236 237
3 234 238 235
3 236 239 240
3 237 240 241
3 237 242 235
3 232 243 244
3 233 239 238
3 244 245 233
3 232 246 247
3 248 242 246
3 249 235 250
3 250 242 251
3 249 246 234
3 252 253 254
3 255 256 257
3 249 258 248
3 250 259 260
3 250 261 249
3 251 258 259
3 252 262 255
3 257 253 263
3 264 265 266
3 262 267 256
3 253 268 254
3 254 269 262
3 256 270 253
3 271 272 273
3 274 272 264
3 275 265 271
3 274 271 273
3 268 274 269
3 268 266 275
3 269 264 267
3 267 266 270
3 258 263 259
3 261 252 255
3 258 255 257
3 259 252 260
3 248 250 249
3 276 277 278
3 279 280 281
3 282 278 280
3 279 283 282
3 284 279 281
3 285 281 280
3 286 287 277
3 283 276 282
3 288 286 276
3 277 289 278
3 289 290 291
3 292 278 293
3 285 292 290
3 293 289 291
3 292 291 293
3 242 289 246
3 246 287 247
3 240 284 241
3 245 294 288
3 239 295 240
3 241 285 242
3 243 287 294
3 245 283 239
3 232 244 233
3 235 238 236
3 234 233 238
3 237 241 242
3 271 265 272
3 275 266 265
3 274 275 271
3 268 275 274
3 236 238 239
3 237 236 240
3 232 247 243
3 233 245 239
3 244 243 245
3 232 234 246
3 248 251 242
3 249 234 235
3 250 235 242
3 249 248 246
3 252 263 253
3 255 262 256
3 249 261 258
3 250 251 259
3 250 260 261
3 251 248 258
3 252 254 262
3 257 256 253
3 264 272 265
3 262 269 267
3 253 270 268
3 254 268 269
3 256 267 270
3 274 273 272
3 268 270 266
3 269 274 264
3 267 264 266
3 258 257 263
3 261 260 252
3 258 261 255
3 259 263 252
3 248 251 250
3 276 286 277
3 279 282 280
3 282 276 278
3 279 295 283
3 284 295 279
3 285 284 281
3 286 294 287
3 283 288 276
3 288 294 286
3 277 287 289
3 289 285 290
3 292 280 278
3 285 280 292
3 293 278 289
3 292 290 291
3 242 285 289
3 246 289 287
3 240 295 284
3 245 243 294
3 239 283 295
3 241 284 285
3 243 247 287
3 245 288 283
3 296 297 298
3 299 300 301
3 298 302 299
3 301 303 299
3 300 304 301
3 300 305 306
3 307 308 309
3 299 310 298
3 311 312 313
3 313 314 315
3 296 310 308
3 307 316 297
3 317 305 315
3 311 302 297
3 313 305 302
3 311 316 317
3 315 318 317
3 311 318 319
3 320 321 322
3 322 323 324
3 325 326 320
3 327 324 328
3 327 320 322
3 328 326 329
3 330 331 332
3 326 323 333
3 320 333 334
3 331 335 336
3 337 336 335
3 338 331 336
3 337 339 330
3 323 330 333
3 321 332 338
3 323 338 337
3 333 332 334
3 318 328 329
3 319 327 312
3 314 327 328
3 318 325 319
3 340 341 342
3 343 344 345
3 346 342 344
3 347 345 344
3 348 343 345
3 343 349 346
3 350 351 341
3 352 344 342
3 341 352 342
3 353 350 340
3 349 354 355
3 356 346 357
3 357 349 355
3 353 356 354
3 354 357 355
3 306 348 304
3 305 358 306
3 308 359 309
3 316 349 305
3 309 353 316
3 303 352 310
3 304 347 303
3 310 351 308
3 296 307 297
3 299 302 300
3 298 297 302
3 301 304 303
3 300 306 304
3 300 302 305
3 307 296 308
3 299 303 310
3 311 319 312
3 313 312 314
3 296 298 310
3 307 309 316
3 317 316 305
3 311 313 302
3 313 315 305
3 311 297 316
3 315 314 318
3 311 317 318
3 320 334 321
3 322 321 323
3 325 329 326
3 327 322 324
3 327 325 320
3 328 324 326
3 330 339 331
3 326 324 323
3 320 326 333
3 331 339 335
3 337 338 336
3 338 332 331
3 337 335 339
3 323 337 330
3 321 334 332
3 323 321 338
3 333 330 332
3 318 314 328
3 319 325 327
3 314 312 327
3 318 329 325
3 340 350 341
3 343 346 344
3 346 340 342
3 347 348 345
3 348 358 343
3 343 358 349
3 350 359 351
3 352 347 344
3 341 351 352
3 353 359 350
3 349 353 354
3 356 340 346
3 357 346 349
3 353 340 356
3 354 356 357
3 306 358 348
3 305 349 358
3 308 351 359
3 316 353 349
3 309 359 353
3 303 347 352
3 304 348 347
3 310 352 351
