####
#
# OBJ File Generated by Meshlab
#
####
# Object untitled.obj
#
# Vertices: 360
# Faces: 719
#
####
v 0.619805 -0.419132 1.055291
v 0.619805 -0.767920 1.015731
v 0.619805 -0.419132 1.015731
v -0.583662 -0.767920 1.055291
v -0.626647 -0.767920 1.015731
v -0.583662 -0.767920 1.015731
v -0.626647 -0.767920 1.055291
v -0.626647 -0.419132 1.015731
v 0.583533 -0.419132 1.055291
v 0.583533 -0.419132 1.015731
v -0.626647 -0.767920 -0.698502
v -0.583661 -0.419132 -0.698502
v -0.583661 -0.767920 -0.698502
v 0.619805 -0.767920 1.055291
v 0.583533 -0.767920 1.055291
v 0.619805 -0.419132 0.680342
v 0.583533 -0.419132 0.680342
v -0.626647 -0.419132 0.680342
v -0.626647 -0.767920 0.680342
v -0.583662 -0.767920 0.680342
v 0.619805 -0.767920 0.680342
v 0.583533 -0.767920 0.680342
v -0.583662 -0.419132 0.268636
v -0.583662 -0.748559 -0.085275
v -0.583662 -0.419132 -0.085275
v 0.032909 -0.419132 1.055291
v 0.032909 -0.767920 1.055291
v 0.583533 -0.767920 -0.698502
v 0.619805 -0.419132 -0.698502
v 0.619805 -0.767920 -0.698502
v 0.032909 -0.419132 1.015731
v 0.583533 -0.767920 1.015731
v -0.626647 -0.419132 1.055291
v -0.583662 -0.419132 1.015731
v -0.583662 -0.419132 0.680342
v -0.009956 -0.767920 1.015731
v -0.009956 -0.767920 0.680342
v -0.009955 -0.419132 -0.698502
v -0.009955 -0.767920 -0.698502
v -0.009956 -0.767920 1.055291
v -0.009956 -0.767920 -0.655647
v -0.626647 -0.419132 -0.655647
v -0.626647 -0.419132 -0.698502
v 0.032909 -0.419132 -0.655647
v 0.583533 -0.419132 -0.698502
v 0.032910 -0.419132 -0.698502
v 0.619805 -0.767920 -0.655647
v 0.619805 -0.419132 -0.655647
v -0.583662 -0.767920 -0.655647
v -0.626647 -0.767920 -0.655647
v 0.583533 -0.419132 -0.655647
v -0.009956 -0.419132 -0.655647
v 0.583533 -0.767920 -0.655647
v 0.032910 -0.767920 -0.698502
v 0.032909 -0.767920 1.015731
v 0.032909 -0.767920 0.680342
v -0.009956 -0.419132 1.055291
v -0.009956 -0.419132 1.015731
v 0.583533 -0.419132 0.644523
v 0.032909 -0.748559 0.644523
v 0.032909 -0.419132 0.644523
v -0.009956 -0.748559 -0.085275
v -0.009956 -0.419132 -0.085275
v -0.583662 -0.419132 1.055291
v -0.583662 -0.419132 -0.655647
v 0.032909 -0.767920 -0.655647
v -0.009956 -0.767920 0.644523
v 0.032909 -0.767920 0.644523
v -0.009956 -0.419132 0.644523
v -0.583662 -0.419132 0.644523
v -0.009956 -0.419132 0.680342
v 0.583533 -0.767920 0.644523
v -0.583662 -0.767920 0.644523
v -0.626647 -0.419132 0.644523
v 0.032909 -0.419132 0.680342
v 0.619805 -0.767920 0.644523
v 0.619805 -0.419132 0.644523
v -0.626647 -0.767920 0.644523
v 0.619805 -0.419132 0.304581
v 0.583533 -0.419132 0.304581
v -0.626647 -0.419132 0.304581
v -0.626647 -0.767920 0.304581
v -0.583662 -0.767920 0.304581
v 0.619805 -0.767920 0.304581
v 0.583533 -0.767920 0.304581
v 0.583533 -0.748559 0.680342
v -0.583662 -0.419132 0.304581
v -0.009956 -0.767920 0.304581
v 0.032909 -0.767920 0.304581
v 0.032909 -0.419132 0.304581
v -0.009956 -0.419132 0.304581
v 0.032909 -0.748559 0.304581
v 0.032909 -0.767920 -0.123984
v -0.009956 -0.767920 -0.264540
v 0.032909 -0.767920 -0.264540
v -0.009956 -0.419132 -0.123984
v 0.032909 -0.419132 -0.264540
v -0.009956 -0.419132 -0.264540
v 0.583533 -0.767920 -0.123984
v 0.583533 -0.767920 -0.264540
v -0.009956 -0.767920 -0.123984
v -0.583662 -0.767920 -0.264540
v -0.626647 -0.419132 -0.123984
v -0.583662 -0.419132 -0.264540
v -0.626647 -0.419132 -0.264540
v 0.619805 -0.767920 -0.123984
v 0.619805 -0.767920 -0.264540
v 0.619805 -0.419132 -0.123984
v 0.619805 -0.419132 -0.264540
v -0.583662 -0.767920 -0.123984
v -0.626647 -0.767920 -0.264540
v -0.626647 -0.767920 -0.123984
v 0.583533 -0.419132 -0.123984
v 0.583533 -0.419132 -0.264540
v 0.032909 -0.767920 -0.085275
v -0.583662 -0.419132 -0.123984
v 0.032909 -0.419132 -0.123984
v 0.583533 -0.767920 -0.085275
v -0.009956 -0.767920 -0.085275
v -0.626647 -0.419132 -0.085275
v 0.032909 -0.419132 -0.085275
v 0.619805 -0.767920 -0.085275
v 0.619805 -0.419132 -0.085275
v -0.583662 -0.767920 -0.085275
v -0.626647 -0.767920 -0.085275
v 0.583533 -0.419132 -0.085275
v 0.032909 -0.767920 0.268636
v 0.583533 -0.748559 0.268636
v 0.583533 -0.419132 0.268636
v 0.032909 -0.748559 0.268636
v 0.032909 -0.419132 0.268636
v 0.583533 -0.767920 0.268636
v -0.009956 -0.767920 0.268636
v -0.626647 -0.419132 0.268636
v -0.583662 -0.748559 0.644523
v 0.619805 -0.767920 0.268636
v 0.619805 -0.419132 0.268636
v -0.583662 -0.767920 0.268636
v -0.626647 -0.767920 0.268636
v -0.009956 -0.419132 0.268636
v 0.032909 -0.748559 1.015731
v 0.032909 -0.748559 0.680342
v -0.009956 -0.748559 1.015731
v -0.009956 -0.748559 0.680342
v -0.583662 -0.748559 1.015731
v -0.583662 -0.748559 0.680342
v 0.583533 -0.748559 0.304581
v -0.009956 -0.748559 0.304581
v -0.583662 -0.748559 0.304581
v -0.583662 -0.748559 0.268636
v -0.009956 -0.748559 0.268636
v 0.032909 -0.748559 -0.085275
v 0.583533 -0.748559 -0.085275
v -0.009956 -0.748559 0.644523
v 0.583533 -0.748559 1.015731
v 0.583533 -0.748559 0.644523
v 0.583533 -0.419132 -0.283472
v 0.619805 -0.419132 -0.450017
v 0.583533 -0.419132 -0.450017
v -0.626647 -0.767920 -0.283472
v -0.626647 -0.419132 -0.450017
v -0.626647 -0.767920 -0.450017
v -0.583662 -0.767920 -0.283472
v -0.583662 -0.767920 -0.450017
v 0.619805 -0.419132 -0.283472
v 0.619805 -0.767920 -0.450017
v 0.619805 -0.767920 -0.283472
v 0.583533 -0.767920 -0.450017
v -0.626647 -0.419132 -0.283472
v -0.583662 -0.419132 -0.450017
v -0.009956 -0.767920 -0.283472
v -0.009956 -0.767920 -0.450017
v 0.583533 -0.767920 -0.283472
v 0.032909 -0.767920 -0.450017
v -0.009956 -0.419132 -0.283472
v 0.032909 -0.419132 -0.450017
v -0.009956 -0.419132 -0.450017
v 0.032909 -0.767920 -0.283472
v -0.583662 -0.419132 -0.283472
v 0.032909 -0.419132 -0.283472
v 0.032909 -0.767920 -0.469559
v -0.009956 -0.419132 -0.469559
v 0.583533 -0.767920 -0.469559
v -0.009956 -0.767920 -0.469559
v -0.626647 -0.419132 -0.469559
v 0.619805 -0.767920 -0.469559
v -0.583662 -0.767920 -0.469559
v -0.626647 -0.767920 -0.469559
v -0.583662 -0.749141 -0.283472
v -0.583662 -0.749141 -0.450017
v 0.583533 -0.419132 -0.469559
v 0.583533 -0.749141 -0.450017
v -0.583662 -0.749141 -0.264540
v 0.583533 -0.749141 -0.655647
v 0.619805 -0.419132 -0.469559
v 0.583533 -0.749141 -0.283472
v -0.009956 -0.749141 -0.264540
v 0.032909 -0.749141 -0.283472
v -0.009956 -0.749141 -0.450017
v 0.583533 -0.749141 -0.264540
v 0.032909 -0.419132 -0.469559
v -0.583662 -0.419132 -0.469559
v -0.009956 -0.749141 -0.123984
v 0.032909 -0.749141 -0.123984
v 0.032909 -0.749141 -0.264540
v -0.583662 -0.442553 -0.450017
v 0.032909 -0.749141 -0.450017
v -0.583662 -0.749141 -0.655647
v -0.009956 -0.749141 -0.469559
v -0.009956 -0.749141 -0.655647
v -0.009956 -0.749141 -0.283472
v 0.583533 -0.442553 -0.283472
v 0.032909 -0.749141 -0.655647
v 0.583533 -0.749141 -0.469559
v 0.583533 -0.442553 -0.264540
v 0.032909 -0.442553 -0.264540
v -0.583662 -0.749141 -0.469559
v 0.583533 -0.749141 -0.123984
v 0.032909 -0.749141 -0.469559
v -0.583662 -0.749141 -0.123984
v 0.032909 -0.442553 -0.283472
v -0.583662 -0.442553 -0.283472
v -0.009956 -0.442553 -0.264540
v -0.009956 -0.442553 -0.283472
v -0.583662 -0.442553 -0.469559
v -0.009956 -0.442553 -0.450017
v -0.009956 -0.442553 -0.469559
v 0.032909 -0.442553 -0.469559
v 0.583533 -0.442553 -0.450017
v 0.583533 -0.442553 -0.469559
v 0.032909 -0.442553 -0.450017
v -0.583662 -0.442553 -0.264540
v 0.663034 0.069950 -0.174188
v 0.600021 -0.375834 -0.237454
v 0.663034 0.069950 -0.237454
v 0.663034 0.069950 -0.283473
v 0.600021 -0.375834 -0.605443
v 0.663034 0.069950 -0.605443
v 0.600021 -0.375834 -0.283473
v 0.592995 -0.425543 -0.283473
v 0.592995 -0.425543 -0.655647
v 0.670060 0.119660 -0.655647
v 0.670060 0.119660 -0.283473
v 0.592995 -0.425543 -0.123984
v 0.600021 -0.375834 -0.174188
v 0.592995 -0.425543 -0.237454
v 0.670060 0.119660 -0.237454
v 0.670060 0.119660 -0.123984
v 0.668337 0.107470 -0.249404
v 0.664756 0.082141 -0.249404
v 0.664756 0.082141 -0.271522
v 0.668337 0.107470 -0.271522
v 0.679662 0.084596 -0.267616
v 0.684557 0.102309 -0.269067
v 0.681771 0.082603 -0.269067
v 0.679662 0.084596 -0.253310
v 0.684557 0.102309 -0.251859
v 0.681978 0.100980 -0.253310
v 0.673249 0.101809 -0.253655
v 0.673249 0.101809 -0.267271
v 0.671045 0.086218 -0.267271
v 0.671045 0.086218 -0.253655
v 0.681771 0.082603 -0.251859
v 0.681978 0.100980 -0.267616
v 0.702775 0.105978 -0.246514
v 0.707433 0.099076 -0.269067
v 0.702775 0.105978 -0.274412
v 0.692569 0.109592 -0.244655
v 0.687451 0.073386 -0.276271
v 0.687451 0.073386 -0.244655
v 0.692569 0.109592 -0.276271
v 0.704647 0.079370 -0.269067
v 0.707433 0.099076 -0.251859
v 0.704647 0.079370 -0.251859
v 0.698260 0.074029 -0.246514
v 0.698260 0.074029 -0.274412
v 0.593090 -0.374854 -0.237454
v 0.656102 0.070930 -0.174188
v 0.656102 0.070930 -0.237454
v 0.593090 -0.374854 -0.605443
v 0.656102 0.070930 -0.283473
v 0.656102 0.070930 -0.605443
v 0.593090 -0.374854 -0.283473
v 0.586063 -0.424564 -0.283473
v 0.663129 0.120640 -0.655647
v 0.663129 0.120640 -0.283473
v 0.593090 -0.374854 -0.174188
v 0.663129 0.120640 -0.123984
v 0.586063 -0.424564 -0.237454
v 0.663129 0.120640 -0.237454
v 0.661443 0.107208 -0.270337
v 0.661443 0.107208 -0.250589
v 0.658206 0.084304 -0.270337
v 0.658206 0.084304 -0.250589
v 0.586064 -0.424564 -0.123984
v 0.586064 -0.424564 -0.655647
v -0.533459 -0.419132 -0.174188
v -0.060160 -0.419132 -0.237453
v -0.533459 -0.419132 -0.237453
v -0.533459 -0.419132 -0.283472
v -0.060160 -0.419132 -0.605443
v -0.533459 -0.419132 -0.605443
v -0.060160 -0.419132 -0.283472
v -0.583662 -0.419132 -0.283472
v -0.583662 -0.419132 -0.655647
v -0.009956 -0.419132 -0.283472
v -0.009956 -0.419132 -0.655647
v -0.060160 -0.419132 -0.174188
v -0.583662 -0.419132 -0.123984
v -0.009956 -0.419132 -0.123984
v -0.583662 -0.419132 -0.237453
v -0.048343 -0.419132 -0.248976
v -0.042686 -0.413963 -0.267058
v -0.048343 -0.419132 -0.271950
v -0.027431 -0.413963 -0.267058
v -0.021772 -0.419132 -0.271950
v -0.009956 -0.419132 -0.237453
v -0.021772 -0.419132 -0.248976
v -0.027431 -0.413963 -0.253868
v -0.042686 -0.413963 -0.253868
v -0.045247 -0.402836 -0.251653
v -0.054322 -0.395923 -0.277118
v -0.045247 -0.402836 -0.269273
v -0.015795 -0.395923 -0.277118
v -0.024869 -0.402836 -0.269273
v -0.043149 -0.405331 -0.253466
v -0.024869 -0.402836 -0.251653
v -0.043149 -0.405331 -0.267459
v -0.026966 -0.405331 -0.267459
v -0.026966 -0.405331 -0.253466
v -0.017454 -0.385310 -0.245242
v -0.045247 -0.379733 -0.251653
v -0.052662 -0.385310 -0.245242
v -0.015795 -0.395923 -0.243807
v -0.054322 -0.395923 -0.243807
v -0.024869 -0.379733 -0.269273
v -0.045247 -0.379733 -0.269273
v -0.017454 -0.385310 -0.275683
v -0.052662 -0.385310 -0.275683
v -0.024869 -0.379733 -0.251653
v -0.060160 -0.426132 -0.237453
v -0.533459 -0.426132 -0.174188
v -0.533459 -0.426132 -0.237453
v -0.060160 -0.426132 -0.605443
v -0.533459 -0.426132 -0.283472
v -0.533459 -0.426132 -0.605443
v -0.060160 -0.426132 -0.283472
v -0.583662 -0.426132 -0.283472
v -0.583662 -0.426132 -0.655647
v -0.009956 -0.426132 -0.283472
v -0.060160 -0.426132 -0.174188
v -0.583662 -0.426132 -0.123984
v -0.583662 -0.426132 -0.237453
v -0.009956 -0.426132 -0.237453
v -0.022543 -0.426049 -0.249720
v -0.022543 -0.426049 -0.271206
v -0.047573 -0.426049 -0.249720
v -0.047573 -0.426049 -0.271206
v -0.009956 -0.426132 -0.655647
v -0.009956 -0.426132 -0.123984
# 360 vertices, 0 vertices normals

f 1 2 3
f 4 5 6
f 7 8 5
f 9 3 10
f 11 12 13
f 14 9 15
f 10 16 17
f 5 18 19
f 6 19 20
f 3 21 16
f 2 22 21
f 23 24 25
f 15 26 27
f 28 29 30
f 26 10 31
f 14 32 2
f 33 34 8
f 4 33 7
f 8 35 18
f 36 20 37
f 13 38 39
f 40 6 36
f 41 13 39
f 42 12 43
f 44 45 46
f 47 28 30
f 48 30 29
f 49 11 13
f 50 43 11
f 51 29 45
f 52 46 38
f 53 54 28
f 15 55 32
f 54 45 28
f 32 56 22
f 57 31 58
f 27 57 40
f 59 60 61
f 25 62 63
f 40 64 4
f 64 58 34
f 65 38 12
f 66 39 54
f 27 36 55
f 39 46 54
f 55 37 56
f 56 67 68
f 35 69 70
f 71 61 69
f 22 68 72
f 37 73 67
f 18 70 74
f 75 59 61
f 21 72 76
f 16 76 77
f 20 78 73
f 19 74 78
f 17 77 59
f 59 79 80
f 78 81 82
f 73 82 83
f 77 84 79
f 76 85 84
f 75 86 17
f 74 87 81
f 67 83 88
f 72 89 85
f 69 90 91
f 61 92 90
f 68 88 89
f 93 94 95
f 96 97 98
f 99 95 100
f 101 102 94
f 103 104 105
f 106 100 107
f 108 107 109
f 110 111 102
f 112 105 111
f 113 109 114
f 115 101 93
f 25 96 116
f 63 117 96
f 118 93 99
f 119 110 101
f 120 116 103
f 121 113 117
f 122 99 106
f 123 106 108
f 124 112 110
f 125 103 112
f 126 108 113
f 127 119 115
f 126 128 129
f 129 130 131
f 132 115 118
f 133 124 119
f 134 25 120
f 69 135 70
f 136 118 122
f 137 122 123
f 138 125 124
f 139 120 125
f 129 123 126
f 89 133 127
f 87 140 23
f 91 131 140
f 85 127 132
f 88 138 133
f 81 23 134
f 90 129 131
f 84 132 136
f 79 136 137
f 83 139 138
f 82 134 139
f 80 137 129
f 141 86 142
f 143 142 144
f 145 144 146
f 60 147 92
f 135 148 149
f 150 62 24
f 151 152 62
f 130 153 152
f 91 154 69
f 63 152 121
f 90 147 80
f 58 145 34
f 17 155 10
f 140 150 23
f 35 144 71
f 10 141 31
f 34 146 35
f 131 151 140
f 80 156 59
f 71 142 75
f 31 143 58
f 87 148 91
f 70 149 87
f 121 153 126
f 157 158 159
f 160 161 162
f 163 162 164
f 165 166 158
f 167 168 166
f 169 170 161
f 171 164 172
f 173 174 168
f 175 176 177
f 178 172 174
f 114 165 157
f 111 169 160
f 102 160 163
f 109 167 165
f 107 173 167
f 105 179 169
f 94 163 171
f 100 178 173
f 98 180 175
f 95 171 178
f 153 115 118
f 115 62 119
f 119 24 62
f 120 25 24
f 181 41 66
f 182 44 52
f 183 66 53
f 184 49 41
f 185 65 42
f 186 53 47
f 187 50 49
f 188 42 50
f 104 189 179
f 179 190 170
f 191 192 159
f 116 193 104
f 191 48 51
f 44 194 51
f 195 47 48
f 159 196 157
f 175 197 98
f 97 198 180
f 182 199 177
f 157 200 114
f 174 184 181
f 177 201 182
f 168 181 183
f 172 187 184
f 161 202 185
f 166 183 186
f 158 186 195
f 164 188 187
f 162 185 188
f 159 195 191
f 193 203 197
f 204 200 205
f 199 206 190
f 207 196 192
f 208 209 210
f 190 211 199
f 198 212 196
f 213 214 194
f 196 215 200
f 200 216 205
f 170 217 202
f 201 213 44
f 180 207 176
f 65 210 52
f 114 218 113
f 176 219 201
f 52 209 182
f 113 204 117
f 117 205 97
f 51 214 191
f 96 220 116
f 98 203 96
f 202 208 65
f 177 211 175
f 216 212 221
f 222 223 224
f 225 226 227
f 228 229 230
f 193 222 189
f 217 227 209
f 209 226 199
f 192 231 207
f 197 232 193
f 214 229 192
f 219 230 214
f 205 221 198
f 190 225 217
f 211 223 197
f 207 228 219
f 189 224 211
f 1 14 2
f 4 7 5
f 11 43 12
f 14 1 9
f 6 5 19
f 3 2 21
f 2 32 22
f 28 45 29
f 14 15 32
f 36 6 20
f 13 12 38
f 40 4 6
f 41 49 13
f 47 53 28
f 48 47 30
f 49 50 11
f 53 66 54
f 15 27 55
f 54 46 45
f 32 55 56
f 66 41 39
f 27 40 36
f 39 38 46
f 55 36 37
f 56 37 67
f 22 56 68
f 37 20 73
f 21 22 72
f 16 21 76
f 20 19 78
f 73 78 82
f 77 76 84
f 76 72 85
f 67 73 83
f 72 68 89
f 68 67 88
f 93 101 94
f 99 93 95
f 101 110 102
f 106 99 100
f 108 106 107
f 110 112 111
f 115 119 101
f 118 115 93
f 119 124 110
f 122 118 99
f 123 122 106
f 124 125 112
f 127 133 119
f 132 127 115
f 133 138 124
f 136 132 118
f 137 136 122
f 138 139 125
f 89 88 133
f 85 89 127
f 88 83 138
f 84 85 132
f 79 84 136
f 83 82 139
f 163 160 162
f 165 167 166
f 167 173 168
f 171 163 164
f 173 178 174
f 178 171 172
f 102 111 160
f 109 107 167
f 107 100 173
f 94 102 163
f 100 95 178
f 95 94 171
f 181 184 41
f 183 181 66
f 184 187 49
f 186 183 53
f 187 188 50
f 195 186 47
f 174 172 184
f 168 174 181
f 172 164 187
f 166 168 183
f 158 166 186
f 164 162 188
f 7 33 8
f 9 1 3
f 10 3 16
f 5 8 18
f 23 150 24
f 15 9 26
f 26 9 10
f 33 64 34
f 4 64 33
f 8 34 35
f 42 65 12
f 44 51 45
f 50 42 43
f 51 48 29
f 52 44 46
f 57 26 31
f 27 26 57
f 59 156 60
f 25 24 62
f 40 57 64
f 64 57 58
f 65 52 38
f 35 71 69
f 71 75 61
f 18 35 70
f 75 17 59
f 19 18 74
f 17 16 77
f 59 77 79
f 78 74 81
f 75 142 86
f 74 70 87
f 69 61 90
f 61 60 92
f 96 117 97
f 103 116 104
f 112 103 105
f 113 108 109
f 25 63 96
f 63 121 117
f 120 25 116
f 121 126 113
f 125 120 103
f 126 123 108
f 126 153 128
f 129 128 130
f 134 23 25
f 69 154 135
f 139 134 120
f 129 137 123
f 87 91 140
f 91 90 131
f 81 87 23
f 90 80 129
f 82 81 134
f 80 79 137
f 141 155 86
f 143 141 142
f 145 143 144
f 60 156 147
f 135 154 148
f 150 151 62
f 151 130 152
f 130 128 153
f 91 148 154
f 63 62 152
f 90 92 147
f 58 143 145
f 17 86 155
f 140 151 150
f 35 146 144
f 10 155 141
f 34 145 146
f 131 130 151
f 80 147 156
f 71 144 142
f 31 141 143
f 87 149 148
f 70 135 149
f 121 152 153
f 157 165 158
f 160 169 161
f 169 179 170
f 175 180 176
f 114 109 165
f 111 105 169
f 105 104 179
f 98 97 180
f 153 152 115
f 115 152 62
f 119 124 24
f 124 125 24
f 125 120 24
f 182 201 44
f 185 202 65
f 188 185 42
f 104 193 189
f 179 189 190
f 191 214 192
f 116 220 193
f 191 195 48
f 44 213 194
f 159 192 196
f 175 211 197
f 97 205 198
f 182 209 199
f 157 196 200
f 177 176 201
f 161 170 202
f 162 161 185
f 159 158 195
f 193 220 203
f 204 218 200
f 199 226 206
f 207 198 196
f 208 217 209
f 190 189 211
f 198 221 212
f 213 219 214
f 196 212 215
f 200 215 216
f 170 190 217
f 201 219 213
f 180 198 207
f 65 208 210
f 114 200 218
f 176 207 219
f 52 210 209
f 113 218 204
f 117 204 205
f 51 194 214
f 96 203 220
f 98 197 203
f 202 217 208
f 177 199 211
f 216 215 212
f 222 232 223
f 225 206 226
f 228 231 229
f 193 232 222
f 217 225 227
f 209 227 226
f 192 229 231
f 197 223 232
f 214 230 229
f 219 228 230
f 205 216 221
f 190 206 225
f 211 224 223
f 207 231 228
f 189 222 224
f 233 234 235
f 236 237 238
f 235 239 236
f 237 240 241
f 238 241 242
f 238 243 236
f 233 244 245
f 234 240 239
f 245 246 234
f 233 247 248
f 249 243 247
f 250 236 251
f 251 243 252
f 250 247 235
f 253 254 255
f 256 257 258
f 250 259 249
f 251 260 261
f 251 262 250
f 252 259 260
f 253 263 256
f 258 254 264
f 265 266 267
f 263 268 257
f 254 269 255
f 255 270 263
f 257 271 254
f 272 273 274
f 275 273 265
f 276 266 272
f 275 272 274
f 269 275 270
f 269 267 276
f 270 265 268
f 268 267 271
f 259 264 260
f 262 253 256
f 259 256 258
f 260 253 261
f 249 251 250
f 277 278 279
f 280 281 282
f 283 279 281
f 280 284 283
f 285 280 282
f 286 282 281
f 287 288 278
f 284 277 283
f 289 287 277
f 278 290 279
f 290 291 292
f 293 279 294
f 286 293 291
f 294 290 292
f 293 292 294
f 243 290 247
f 247 288 248
f 241 285 242
f 246 295 289
f 240 296 241
f 242 286 243
f 244 288 295
f 246 284 240
f 233 245 234
f 236 239 237
f 235 234 239
f 238 242 243
f 272 266 273
f 276 267 266
f 275 276 272
f 269 276 275
f 237 239 240
f 238 237 241
f 233 248 244
f 234 246 240
f 245 244 246
f 233 235 247
f 249 252 243
f 250 235 236
f 251 236 243
f 250 249 247
f 253 264 254
f 256 263 257
f 250 262 259
f 251 252 260
f 251 261 262
f 252 249 259
f 253 255 263
f 258 257 254
f 265 273 266
f 263 270 268
f 254 271 269
f 255 269 270
f 257 268 271
f 275 274 273
f 269 271 267
f 270 275 265
f 268 265 267
f 259 258 264
f 262 261 253
f 259 262 256
f 260 264 253
f 249 252 251
f 277 287 278
f 280 283 281
f 283 277 279
f 280 296 284
f 285 296 280
f 286 285 282
f 287 295 288
f 284 289 277
f 289 295 287
f 278 288 290
f 290 286 291
f 293 281 279
f 286 281 293
f 294 279 290
f 293 291 292
f 243 286 290
f 247 290 288
f 241 296 285
f 246 244 295
f 240 284 296
f 242 285 286
f 244 248 288
f 246 289 284
f 297 298 299
f 300 301 302
f 299 303 300
f 302 304 300
f 301 305 302
f 301 306 307
f 308 309 310
f 300 311 299
f 312 313 314
f 314 315 316
f 297 311 309
f 308 317 298
f 318 306 316
f 312 303 298
f 314 306 303
f 312 317 318
f 316 319 318
f 312 319 320
f 321 322 323
f 323 324 325
f 326 327 321
f 328 325 329
f 328 321 323
f 329 327 330
f 331 332 333
f 327 324 334
f 321 334 335
f 332 336 337
f 338 337 336
f 339 332 337
f 338 340 331
f 324 331 334
f 322 333 339
f 324 339 338
f 334 333 335
f 319 329 330
f 320 328 313
f 315 328 329
f 319 326 320
f 341 342 343
f 344 345 346
f 347 343 345
f 348 346 345
f 349 344 346
f 344 350 347
f 351 352 342
f 353 345 343
f 342 353 343
f 354 351 341
f 350 355 356
f 357 347 358
f 358 350 356
f 354 357 355
f 355 358 356
f 307 349 305
f 306 359 307
f 309 360 310
f 317 350 306
f 310 354 317
f 304 353 311
f 305 348 304
f 311 352 309
f 297 308 298
f 300 303 301
f 299 298 303
f 302 305 304
f 301 307 305
f 301 303 306
f 308 297 309
f 300 304 311
f 312 320 313
f 314 313 315
f 297 299 311
f 308 310 317
f 318 317 306
f 312 314 303
f 314 316 306
f 312 298 317
f 316 315 319
f 312 318 319
f 321 335 322
f 323 322 324
f 326 330 327
f 328 323 325
f 328 326 321
f 329 325 327
f 331 340 332
f 327 325 324
f 321 327 334
f 332 340 336
f 338 339 337
f 339 333 332
f 338 336 340
f 324 338 331
f 322 335 333
f 324 322 339
f 334 331 333
f 319 315 329
f 320 326 328
f 315 313 328
f 319 330 326
f 341 351 342
f 344 347 345
f 347 341 343
f 348 349 346
f 349 359 344
f 344 359 350
f 351 360 352
f 353 348 345
f 342 352 353
f 354 360 351
f 350 354 355
f 357 341 347
f 358 347 350
f 354 341 357
f 355 357 358
f 307 359 349
f 306 350 359
f 309 352 360
f 317 354 350
f 310 360 354
f 304 348 353
f 305 349 348
f 311 353 352
# 719 faces, 0 coords texture

# End of File
